<?xml version="1.0" encoding="UTF-8"?>
<!DOCTYPE svg PUBLIC "-//W3C//DTD SVG 1.1//EN" "http://www.w3.org/Graphics/SVG/1.1/DTD/svg11.dtd">
<svg xmlns="http://www.w3.org/2000/svg" version="1.1" width="800px" height="900px" style="shape-rendering:geometricPrecision; text-rendering:geometricPrecision; image-rendering:optimizeQuality; fill-rule:evenodd; clip-rule:evenodd" xmlns:xlink="http://www.w3.org/1999/xlink">
<g><path style="opacity:0.576" fill="#223a7f" d="M 393.5,58.5 C 397.833,58.5 402.167,58.5 406.5,58.5C 406.5,61.1667 406.5,63.8333 406.5,66.5C 409.5,66.5 412.5,66.5 415.5,66.5C 415.5,70.8333 415.5,75.1667 415.5,79.5C 412.5,79.5 409.5,79.5 406.5,79.5C 406.201,81.604 406.534,83.604 407.5,85.5C 410.478,85.9932 412.811,87.4932 414.5,90C 418.039,90.2819 421.539,90.7819 425,91.5C 426.331,92.9958 427.831,94.3291 429.5,95.5C 438.916,91.0766 446.083,93.4099 451,102.5C 455.672,99.7284 460.172,100.062 464.5,103.5C 467.497,106.635 469.664,110.301 471,114.5C 475.963,113.14 480.797,113.64 485.5,116C 487.654,120.093 488.988,124.426 489.5,129C 493.011,129.67 496.344,130.837 499.5,132.5C 507.994,126.351 515.328,127.518 521.5,136C 526.5,136.333 531.5,136.667 536.5,137C 539.263,139.57 540.93,142.737 541.5,146.5C 554.099,146.096 559.765,152.096 558.5,164.5C 562.79,163.987 566.623,164.987 570,167.5C 571.878,172.987 573.044,178.653 573.5,184.5C 583.045,189.185 585.045,196.185 579.5,205.5C 582.505,208.012 585.005,211.012 587,214.5C 587.927,218.449 587.094,221.949 584.5,225C 587.53,234.278 589.03,243.778 589,253.5C 585.194,264.903 577.528,268.903 566,265.5C 560.103,268.022 553.937,269.022 547.5,268.5C 547.612,274.907 544.445,278.907 538,280.5C 537.24,284.225 537.407,287.892 538.5,291.5C 535.049,293.048 534.716,295.048 537.5,297.5C 535.146,300.688 532.312,303.355 529,305.5C 528.781,306.938 528.281,308.271 527.5,309.5C 442.26,269.506 357.093,269.506 272,309.5C 270.731,308.095 270.231,306.429 270.5,304.5C 267.277,303.12 264.444,301.12 262,298.5C 261.667,296.953 262.167,295.62 263.5,294.5C 262.509,293.335 261.509,292.168 260.5,291C 261.578,288.205 262.078,285.371 262,282.5C 258.888,279.604 255.555,276.937 252,274.5C 251.505,272.527 251.338,270.527 251.5,268.5C 245.219,269.052 239.219,268.052 233.5,265.5C 220.823,268.993 212.99,264.326 210,251.5C 210.356,242.657 211.856,233.99 214.5,225.5C 211.72,221.95 210.886,217.95 212,213.5C 214.537,210.628 217.37,208.128 220.5,206C 217.322,200.407 216.822,194.573 219,188.5C 221.397,186.218 224.231,184.884 227.5,184.5C 227.211,178.755 227.711,173.088 229,167.5C 232.413,164.986 236.247,163.986 240.5,164.5C 239.33,151.338 245.33,145.671 258.5,147.5C 257.971,143.808 258.971,140.642 261.5,138C 266.721,136.768 272.054,136.101 277.5,136C 284.035,127.44 291.702,126.274 300.5,132.5C 303.447,130.296 306.78,129.296 310.5,129.5C 309.827,116.664 315.66,111.664 328,114.5C 329.682,110.148 332.182,106.314 335.5,103C 339.933,99.9264 344.433,99.7597 349,102.5C 353.496,93.5078 360.33,91.1745 369.5,95.5C 373.871,91.1441 379.204,89.3108 385.5,90C 387.194,86.9225 389.861,85.4225 393.5,85.5C 393.5,83.5 393.5,81.5 393.5,79.5C 390.167,79.5 386.833,79.5 383.5,79.5C 383.5,75.1667 383.5,70.8333 383.5,66.5C 386.833,66.5 390.167,66.5 393.5,66.5C 393.5,63.8333 393.5,61.1667 393.5,58.5 Z"/></g>
<g><path style="opacity:1" fill="#f1b70f" d="M 372.5,253.5 C 407.146,251.91 441.48,254.41 475.5,261C 495.764,265.699 515.098,272.865 533.5,282.5C 534.273,284.813 534.94,287.146 535.5,289.5C 534.062,292.823 532.229,293.156 530,290.5C 527.065,292.727 525.065,295.394 524,298.5C 525.167,299.667 526.333,300.833 527.5,302C 526.929,303.205 526.262,304.372 525.5,305.5C 441.466,266.873 357.466,266.873 273.5,305.5C 272.369,303.926 272.202,302.259 273,300.5C 274.236,299.601 275.07,298.434 275.5,297C 273.355,294.855 271.188,292.688 269,290.5C 267.921,292.394 266.587,292.727 265,291.5C 264.107,288.084 264.607,284.917 266.5,282C 286.609,272.075 307.609,264.742 329.5,260C 343.913,257.41 358.246,255.244 372.5,253.5 Z"/></g>
<g><path style="opacity:1" fill="#1e397f" d="M 465.5,266.5 C 470.511,266.334 475.511,266.501 480.5,267C 486.359,271.692 492.359,276.192 498.5,280.5C 490.48,281.501 482.48,282.501 474.5,283.5C 467.656,278.911 460.99,274.078 454.5,269C 458.312,268.205 461.979,267.371 465.5,266.5 Z"/></g>
<g><path style="opacity:1" fill="#1f3a7f" d="M 319.5,266.5 C 328.214,266.783 336.881,267.616 345.5,269C 338.989,273.423 332.655,278.089 326.5,283C 317.762,283.1 309.096,282.266 300.5,280.5C 307.079,276.056 313.412,271.39 319.5,266.5 Z"/></g>
<g><path style="opacity:1" fill="#827645" d="M 485.5,123.5 C 486.167,126.5 486.833,129.5 487.5,132.5C 487.44,133.043 487.107,133.376 486.5,133.5C 485.513,130.232 485.18,126.898 485.5,123.5 Z"/></g>
<g><path style="opacity:1" fill="#f2b80e" d="M 485.5,123.5 C 485.18,126.898 485.513,130.232 486.5,133.5C 487.107,133.376 487.44,133.043 487.5,132.5C 492.42,131.881 496.253,133.547 499,137.5C 502.277,131.891 507.11,130.058 513.5,132C 516.5,133.667 518.833,136 520.5,139C 523.497,139.305 526.497,139.138 529.5,138.5C 531.634,138.515 533.634,139.015 535.5,140C 537.712,143.134 539.046,146.634 539.5,150.5C 553.084,148.417 558.417,154.084 555.5,167.5C 559.911,167.021 564.078,167.688 568,169.5C 569.404,175.044 569.904,180.71 569.5,186.5C 577.49,187.322 580.656,191.655 579,199.5C 577.558,202.05 576.392,204.716 575.5,207.5C 578.82,209.327 581.653,211.66 584,214.5C 584.644,218.141 584.144,221.641 582.5,225C 584.892,234.383 586.058,243.883 586,253.5C 582.314,263.25 575.481,266.25 565.5,262.5C 558.772,265.15 551.772,266.15 544.5,265.5C 544.664,268.187 544.497,270.854 544,273.5C 541.201,275.543 538.201,277.209 535,278.5C 491.716,257.419 445.882,247.752 397.5,249.5C 358.589,248.892 320.922,255.392 284.5,269C 277.307,271.846 270.474,275.346 264,279.5C 261.235,277.213 258.235,275.213 255,273.5C 254.503,270.854 254.336,268.187 254.5,265.5C 247.175,266.15 240.175,265.15 233.5,262.5C 218.648,265.156 211.815,258.822 213,243.5C 214.487,237.563 215.654,231.563 216.5,225.5C 215.238,221.901 214.738,218.234 215,214.5C 217.506,211.663 220.339,209.163 223.5,207C 221.076,202.411 219.91,197.577 220,192.5C 222.436,188.55 225.936,186.55 230.5,186.5C 229.005,180.782 229.171,175.115 231,169.5C 235.321,167.993 239.821,166.993 244.5,166.5C 241.317,153.015 246.65,147.682 260.5,150.5C 260.387,146.673 261.387,143.173 263.5,140C 272.55,141.334 279.883,138.667 285.5,132C 291.89,130.058 296.723,131.891 300,137.5C 303.334,132.945 307.834,131.278 313.5,132.5C 311.242,118.097 317.242,112.764 331.5,116.5C 332.992,105.463 338.825,101.797 349,105.5C 351.478,101.689 354.645,98.522 358.5,96C 362.979,95.4366 366.979,96.6032 370.5,99.5C 374.146,92.747 379.313,91.0803 386,94.5C 387.448,89.8558 390.615,87.8558 395.5,88.5C 395.5,84.5 395.5,80.5 395.5,76.5C 392.5,76.5 389.5,76.5 386.5,76.5C 386.5,74.1667 386.5,71.8333 386.5,69.5C 389.5,69.5 392.5,69.5 395.5,69.5C 395.5,66.5 395.5,63.5 395.5,60.5C 398.167,60.5 400.833,60.5 403.5,60.5C 403.5,63.5 403.5,66.5 403.5,69.5C 406.5,69.5 409.5,69.5 412.5,69.5C 412.5,71.8333 412.5,74.1667 412.5,76.5C 409.5,76.5 406.5,76.5 403.5,76.5C 403.5,80.5 403.5,84.5 403.5,88.5C 405.527,88.3379 407.527,88.5045 409.5,89C 411.043,90.7137 412.71,92.2137 414.5,93.5C 421.256,91.6266 426.089,93.9599 429,100.5C 433.121,95.0634 437.954,94.23 443.5,98C 446.029,100.252 448.196,102.752 450,105.5C 460.22,101.855 466.054,105.521 467.5,116.5C 472.179,116.334 476.845,116.501 481.5,117C 484.222,118.272 485.556,120.439 485.5,123.5 Z"/></g>
<g><path style="opacity:1" fill="#283c82" d="M 356.5,258.5 C 366.73,258.79 369.73,263.623 365.5,273C 355.972,276.794 351.472,273.627 352,263.5C 353.707,261.963 355.207,260.296 356.5,258.5 Z"/></g>
<g><path style="opacity:1" fill="#f4f6f9" d="M 357.5,260.5 C 363.873,260.368 366.373,263.368 365,269.5C 362.833,272.287 359.999,273.12 356.5,272C 352.376,267.695 352.709,263.862 357.5,260.5 Z"/></g>
<g><path style="opacity:1" fill="#2c3c7d" d="M 433.5,258.5 C 444.117,258.616 447.117,263.449 442.5,273C 433.494,276.967 428.994,274.134 429,264.5C 430.332,262.34 431.832,260.34 433.5,258.5 Z"/></g>
<g><path style="opacity:1" fill="#f1f3f7" d="M 434.5,260.5 C 440.17,260.339 443.003,263.006 443,268.5C 440.947,272.292 437.781,273.458 433.5,272C 429.344,267.787 429.677,263.954 434.5,260.5 Z"/></g>
<g><path style="opacity:1" fill="#3c3a77" d="M 396.5,256.5 C 405.55,258.016 414.217,260.85 422.5,265C 414.239,269.312 405.572,271.978 396.5,273C 389.833,270.333 383.167,267.667 376.5,265C 383.372,262.39 390.038,259.557 396.5,256.5 Z"/></g>
<g><path style="opacity:1" fill="#de233c" d="M 398.5,257.5 C 405.247,259.695 411.914,262.195 418.5,265C 412.333,267.5 406.167,270 400,272.5C 393.422,270.196 386.922,267.696 380.5,265C 386.641,262.572 392.641,260.072 398.5,257.5 Z"/></g>
<g><path style="opacity:1" fill="#293e7f" d="M 222.5,235.5 C 236.011,234.501 241.511,240.501 239,253.5C 235.373,259.158 230.207,261.325 223.5,260C 214.934,255.635 212.767,249.135 217,240.5C 218.73,238.598 220.563,236.931 222.5,235.5 Z"/></g>
<g><path style="opacity:1" fill="#2f3b7c" d="M 520.5,246.5 C 523.789,247.374 527.123,248.041 530.5,248.5C 530.868,253.235 532.868,257.235 536.5,260.5C 536.192,261.308 535.692,261.975 535,262.5C 525.85,259.005 516.683,255.505 507.5,252C 512.406,251.205 516.74,249.372 520.5,246.5 Z"/></g>
<g><path style="opacity:1" fill="#da243e" d="M 521.5,248.5 C 523.179,248.892 524.846,249.392 526.5,250C 528.353,252.571 530.019,255.238 531.5,258C 525.809,257.163 520.475,255.163 515.5,252C 517.727,251.059 519.727,249.892 521.5,248.5 Z"/></g>
<g><path style="opacity:1" fill="#30397c" d="M 274.5,246.5 C 280.1,248.287 285.767,250.121 291.5,252C 282.317,255.505 273.15,259.005 264,262.5C 263.5,262 263,261.5 262.5,261C 266.055,257.388 268.721,253.222 270.5,248.5C 272.026,248.006 273.359,247.339 274.5,246.5 Z"/></g>
<g><path style="opacity:1" fill="#dc243c" d="M 275.5,248.5 C 278.262,249.38 280.929,250.546 283.5,252C 278.387,254.812 273.054,256.812 267.5,258C 269.377,255.749 270.877,253.249 272,250.5C 273.302,249.915 274.469,249.249 275.5,248.5 Z"/></g>
<g><path style="opacity:1" fill="#353b7a" d="M 486.5,225.5 C 488.352,233.869 491.686,241.703 496.5,249C 487.033,246.965 477.7,244.298 468.5,241C 476.819,238.367 482.819,233.2 486.5,225.5 Z"/></g>
<g><path style="opacity:1" fill="#f8f9fb" d="M 223.5,237.5 C 231.97,236.146 236.97,239.646 238.5,248C 236.977,256.52 231.977,259.853 223.5,258C 214.232,251.171 214.232,244.338 223.5,237.5 Z"/></g>
<g><path style="opacity:1" fill="#2b3e81" d="M 566.5,235.5 C 580.478,234.638 585.978,240.971 583,254.5C 577.482,260.921 570.982,262.087 563.5,258C 556.35,249.428 557.35,241.928 566.5,235.5 Z"/></g>
<g><path style="opacity:1" fill="#f9fafc" d="M 567.5,237.5 C 577.826,236.661 582.659,241.328 582,251.5C 578.96,257.603 574.126,259.769 567.5,258C 562.15,254.629 560.317,249.796 562,243.5C 563.36,240.977 565.193,238.977 567.5,237.5 Z"/></g>
<g><path style="opacity:1" fill="#2e3a7c" d="M 311.5,226.5 C 316.224,233.384 322.557,238.217 330.5,241C 321.177,243.454 312.01,246.287 303,249.5C 306.869,242.413 309.702,234.746 311.5,226.5 Z"/></g>
<g><path style="opacity:1" fill="#dd243c" d="M 485.5,231.5 C 486.816,236.189 488.816,240.689 491.5,245C 485.889,243.849 480.222,242.515 474.5,241C 478.949,238.716 482.616,235.549 485.5,231.5 Z"/></g>
<g><path style="opacity:1" fill="#25397e" d="M 398.5,214.5 C 400.542,218.475 402.875,222.475 405.5,226.5C 408.091,229.466 411.091,231.966 414.5,234C 404.5,234.667 394.5,234.667 384.5,234C 391.314,229.023 395.981,222.523 398.5,214.5 Z"/></g>
<g><path style="opacity:1" fill="#dd243c" d="M 312.5,231.5 C 316.05,235.214 320.05,238.381 324.5,241C 318.911,242.272 313.411,243.772 308,245.5C 309.565,240.967 311.065,236.301 312.5,231.5 Z"/></g>
<g><path style="opacity:1" fill="#383b79" d="M 437.5,226.5 C 440.833,226.5 444.167,226.5 447.5,226.5C 447.351,227.552 447.517,228.552 448,229.5C 450.376,232.045 452.876,234.378 455.5,236.5C 445.446,237.257 435.446,236.591 425.5,234.5C 430.245,232.805 434.245,230.138 437.5,226.5 Z"/></g>
<g><path style="opacity:1" fill="#393c79" d="M 351.5,225.5 C 354.518,225.335 357.518,225.502 360.5,226C 363.983,229.574 367.983,232.407 372.5,234.5C 362.528,236.366 352.528,237.032 342.5,236.5C 344.856,234.31 347.356,232.31 350,230.5C 350.608,228.846 351.108,227.179 351.5,225.5 Z"/></g>
<g><path style="opacity:1" fill="#de243c" d="M 438.5,228.5 C 440.857,228.337 443.19,228.503 445.5,229C 446.79,231.292 448.457,233.292 450.5,235C 444.824,234.942 439.157,234.275 433.5,233C 435.618,231.951 437.284,230.451 438.5,228.5 Z"/></g>
<g><path style="opacity:1" fill="#de233c" d="M 352.5,228.5 C 355.187,228.336 357.854,228.503 360.5,229C 361.878,230.713 363.545,232.047 365.5,233C 359.478,234.004 353.478,234.67 347.5,235C 350.493,233.841 352.16,231.675 352.5,228.5 Z"/></g>
<g><path style="opacity:1" fill="#2c3f80" d="M 223.5,211.5 C 231.696,211.529 234.863,215.529 233,223.5C 228.333,228.833 223.667,228.833 219,223.5C 217.309,218.131 218.809,214.131 223.5,211.5 Z"/></g>
<g><path style="opacity:1" fill="#de233c" d="M 398.5,220.5 C 401.255,224.434 404.255,228.267 407.5,232C 401.833,232.667 396.167,232.667 390.5,232C 393.777,228.563 396.443,224.729 398.5,220.5 Z"/></g>
<g><path style="opacity:1" fill="#263c7f" d="M 570.5,211.5 C 578.696,211.529 581.863,215.529 580,223.5C 574.837,229.062 570.171,228.729 566,222.5C 564.776,217.626 566.276,213.959 570.5,211.5 Z"/></g>
<g><path style="opacity:1" fill="#eff1f6" d="M 570.5,213.5 C 576.378,213.157 579.211,215.824 579,221.5C 571.71,227.906 568.043,226.239 568,216.5C 569.045,215.627 569.878,214.627 570.5,213.5 Z"/></g>
<g><path style="opacity:1" fill="#f3f5f8" d="M 223.5,213.5 C 229.82,213.32 232.32,216.32 231,222.5C 227.667,226.5 224.333,226.5 221,222.5C 219.927,218.9 220.76,215.9 223.5,213.5 Z"/></g>
<g><path style="opacity:1" fill="#304081" d="M 395.5,185.5 C 409.026,185.183 414.193,191.516 411,204.5C 406.824,210.112 401.324,211.945 394.5,210C 387.583,205.913 385.416,200.08 388,192.5C 389.742,189.254 392.242,186.921 395.5,185.5 Z"/></g>
<g><path style="opacity:1" fill="#2e3c7d" d="M 565.5,190.5 C 573.656,189.821 577.156,193.488 576,201.5C 571.829,207.729 567.163,208.062 562,202.5C 560.593,197.556 561.759,193.556 565.5,190.5 Z"/></g>
<g><path style="opacity:1" fill="#2a3d80" d="M 487.5,196.5 C 499.649,195.815 505.149,201.482 504,213.5C 500.345,220.738 494.512,223.238 486.5,221C 480.333,217.155 478.166,211.655 480,204.5C 482.028,201.308 484.528,198.641 487.5,196.5 Z"/></g>
<g><path style="opacity:1" fill="#313b7c" d="M 409.5,122.5 C 452.7,123.045 478.7,144.378 487.5,186.5C 487.449,188.1 487.116,189.6 486.5,191C 484.024,192.309 482.024,194.142 480.5,196.5C 467.905,199.358 464.072,206.692 469,218.5C 472.242,221.205 475.742,223.539 479.5,225.5C 468.879,235.957 460.213,234.457 453.5,221C 458.139,206.564 453.139,200.898 438.5,204C 436.622,205.543 435.122,207.376 434,209.5C 435.031,221.469 429.531,227.303 417.5,227C 411.929,224.254 408.929,219.754 408.5,213.5C 422.846,214.137 427.346,207.804 422,194.5C 419.711,191.938 416.877,190.271 413.5,189.5C 412.772,186.788 411.939,184.121 411,181.5C 408.001,179.956 404.834,178.789 401.5,178C 405.908,175.767 408.575,172.267 409.5,167.5C 409.311,152.504 409.311,137.504 409.5,122.5 Z"/></g>
<g><path style="opacity:1" fill="#f9f9fb" d="M 487.5,198.5 C 497.846,197.682 502.68,202.348 502,212.5C 500.469,217.639 496.969,219.972 491.5,219.5C 483.666,218.197 480.499,213.531 482,205.5C 482.967,202.379 484.8,200.046 487.5,198.5 Z"/></g>
<g><path style="opacity:1" fill="#2a3f81" d="M 302.5,196.5 C 315.502,195.668 321.002,201.668 319,214.5C 315.235,220.76 309.735,222.927 302.5,221C 295.567,217.628 293.067,212.128 295,204.5C 297.028,201.308 299.528,198.641 302.5,196.5 Z"/></g>
<g><path style="opacity:1" fill="#f8f9fb" d="M 303.5,198.5 C 314.433,197.695 318.933,202.695 317,213.5C 313.723,219.109 308.89,220.942 302.5,219C 294.28,211.72 294.613,204.887 303.5,198.5 Z"/></g>
<g><path style="opacity:1" fill="#303c7d" d="M 286.5,160.5 C 287.586,160.62 288.253,161.287 288.5,162.5C 288.637,167.469 290.97,170.969 295.5,173C 285.63,175.173 282.13,181.006 285,190.5C 286.708,192.543 288.708,194.21 291,195.5C 291.667,198.167 291.667,200.833 291,203.5C 284.814,207.507 282.814,213.174 285,220.5C 288.37,229.104 294.203,231.437 302.5,227.5C 302.98,238.519 297.646,243.686 286.5,243C 285.069,242.535 283.903,241.701 283,240.5C 280.54,234.408 276.373,229.908 270.5,227C 260.586,226.912 256.419,231.746 258,241.5C 258.674,243.517 259.841,245.183 261.5,246.5C 259.738,252.201 256.405,256.701 251.5,260C 247.882,260.966 244.549,260.466 241.5,258.5C 249.316,250.345 249.482,242.012 242,233.5C 239.655,209.86 247.488,190.36 265.5,175C 272.403,169.913 279.403,165.08 286.5,160.5 Z"/></g>
<g><path style="opacity:1" fill="#eff1f6" d="M 565.5,192.5 C 573.744,192.228 576.078,195.728 572.5,203C 568.543,205.385 565.376,204.552 563,200.5C 562.388,197.389 563.221,194.723 565.5,192.5 Z"/></g>
<g><path style="opacity:1" fill="#313f7d" d="M 227.5,190.5 C 236.888,189.675 240.388,193.675 238,202.5C 232.837,208.062 228.171,207.729 224,201.5C 222.662,196.96 223.829,193.293 227.5,190.5 Z"/></g>
<g><path style="opacity:1" fill="#f4f6f9" d="M 228.5,192.5 C 235.56,191.725 238.06,194.725 236,201.5C 232.255,205.566 228.922,205.233 226,200.5C 225.018,197.225 225.851,194.559 228.5,192.5 Z"/></g>
<g><path style="opacity:1" fill="#f9fafb" d="M 397.5,187.5 C 406.803,187.635 410.97,192.301 410,201.5C 406.903,208.132 401.736,210.299 394.5,208C 389.142,203.126 388.142,197.46 391.5,191C 393.432,189.541 395.432,188.375 397.5,187.5 Z"/></g>
<g><path style="opacity:1" fill="#2f3e7b" d="M 292.5,176.5 C 300.533,175.922 304.033,179.588 303,187.5C 297.867,194.075 292.867,194.075 288,187.5C 286.776,182.626 288.276,178.959 292.5,176.5 Z"/></g>
<g><path style="opacity:1" fill="#df233b" d="M 279.5,185.5 C 280.376,185.369 281.043,185.702 281.5,186.5C 282.358,190.887 284.691,194.22 288.5,196.5C 288.833,197.5 289.167,198.5 289.5,199.5C 287.588,202.595 285.421,205.595 283,208.5C 279.785,223.42 285.618,231.087 300.5,231.5C 297.964,240.27 292.631,242.77 284.5,239C 281.891,232.725 277.558,228.058 271.5,225C 264.058,223.971 258.558,226.805 255,233.5C 254.323,238.469 255.489,242.969 258.5,247C 257.387,253.089 253.887,256.922 248,258.5C 247.167,258.167 246.333,257.833 245.5,257.5C 252.425,248.784 251.925,240.451 244,232.5C 242.647,221.821 243.98,211.488 248,201.5C 248.93,199.448 250.43,197.948 252.5,197C 261.368,192.558 270.368,188.725 279.5,185.5 Z"/></g>
<g><path style="opacity:1" fill="#293e81" d="M 555.5,171.5 C 562.253,169.772 566.253,172.272 567.5,179C 566.008,185.418 562.008,187.751 555.5,186C 550.232,181.171 550.232,176.337 555.5,171.5 Z"/></g>
<g><path style="opacity:1" fill="#edf0f5" d="M 292.5,178.5 C 298.806,177.707 301.639,180.374 301,186.5C 297.283,191.815 293.617,191.815 290,186.5C 289.018,183.225 289.851,180.559 292.5,178.5 Z"/></g>
<g><path style="opacity:1" fill="#293b7c" d="M 501.5,176.5 C 508.787,175.955 512.287,179.288 512,186.5C 508.536,193.188 503.869,194.188 498,189.5C 495.325,184.011 496.492,179.678 501.5,176.5 Z"/></g>
<g><path style="opacity:1" fill="#eff1f6" d="M 501.5,178.5 C 507.502,178.005 510.335,180.672 510,186.5C 506.197,191.741 502.53,191.741 499,186.5C 498.018,183.225 498.851,180.559 501.5,178.5 Z"/></g>
<g><path style="opacity:1" fill="#323c7d" d="M 510.5,160.5 C 527.557,168.057 541.057,179.724 551,195.5C 556.358,207.265 558.692,219.599 558,232.5C 547.87,241.489 548.037,250.156 558.5,258.5C 547.728,262.272 541.062,258.439 538.5,247C 545.376,236.602 542.876,229.769 531,226.5C 529.373,226.625 527.873,227.125 526.5,228C 521.833,233 517.167,238 512.5,243C 506.16,244.248 501.327,242.081 498,236.5C 497.551,233.868 496.717,231.368 495.5,229C 495.833,228.5 496.167,228 496.5,227.5C 505.956,231.291 512.123,228.291 515,218.5C 516.178,211.856 513.845,206.856 508,203.5C 507.182,200.773 507.348,198.106 508.5,195.5C 514.505,192.158 516.671,187.158 515,180.5C 512.131,177.296 508.965,174.463 505.5,172C 509.493,169.181 511.16,165.347 510.5,160.5 Z"/></g>
<g><path style="opacity:1" fill="#e0233b" d="M 546.5,194.5 C 554.349,205.908 557.182,218.575 555,232.5C 547.022,240.446 546.522,248.779 553.5,257.5C 549.678,258.895 546.512,257.895 544,254.5C 542.688,252.045 541.522,249.545 540.5,247C 547.413,237.147 545.413,229.814 534.5,225C 528.576,223.876 523.742,225.709 520,230.5C 513.547,244.468 506.38,244.968 498.5,232C 511.947,232.532 518.114,225.699 517,211.5C 515.059,207.078 512.559,203.078 509.5,199.5C 513.055,195.431 516.055,190.931 518.5,186C 523.602,186.189 528.602,187.189 533.5,189C 537.855,190.846 542.188,192.679 546.5,194.5 Z"/></g>
<g><path style="opacity:1" fill="#f5f6f9" d="M 556.5,173.5 C 562.83,172.666 565.663,175.333 565,181.5C 561.952,185.01 558.619,185.343 555,182.5C 552.788,179.021 553.288,176.021 556.5,173.5 Z"/></g>
<g><path style="opacity:1" fill="#bd9b31" d="M 390.5,163.5 C 390.205,165.735 390.539,167.735 391.5,169.5C 393.448,173.753 396.781,175.42 401.5,174.5C 399.5,175.167 397.5,175.833 395.5,176.5C 390.119,173.43 388.452,169.097 390.5,163.5 Z"/></g>
<g><path style="opacity:1" fill="#314484" d="M 236.5,171.5 C 247.314,170.812 250.314,175.312 245.5,185C 235.961,188.66 231.794,185.493 233,175.5C 233.69,173.65 234.856,172.316 236.5,171.5 Z"/></g>
<g><path style="opacity:1" fill="#f6f7fa" d="M 236.5,173.5 C 245.437,172.603 247.771,176.103 243.5,184C 234.939,184.609 232.605,181.109 236.5,173.5 Z"/></g>
<g><path style="opacity:1" fill="#313d7d" d="M 379.5,122.5 C 382.833,122.5 386.167,122.5 389.5,122.5C 389.216,124.415 389.549,126.081 390.5,127.5C 389.261,139.505 389.261,151.505 390.5,163.5C 388.452,169.097 390.119,173.43 395.5,176.5C 396.289,176.783 396.956,177.283 397.5,178C 389.985,178.381 386.319,182.214 386.5,189.5C 377.113,191.929 373.613,197.929 376,207.5C 379.366,212.686 384.199,214.686 390.5,213.5C 389.996,223.075 384.996,227.575 375.5,227C 372.397,225.561 369.564,223.727 367,221.5C 366.667,218.167 366.333,214.833 366,211.5C 363.442,204.134 358.275,201.301 350.5,203C 348.376,204.122 346.543,205.622 345,207.5C 344.336,211.696 344.503,215.862 345.5,220C 339.47,234.675 330.803,236.341 319.5,225C 333.536,220.053 336.202,211.719 327.5,200C 324.666,198.4 321.666,197.234 318.5,196.5C 316.81,193.976 314.643,191.976 312,190.5C 316.558,150.108 339.058,127.441 379.5,122.5 Z"/></g>
<g><path style="opacity:1" fill="#324380" d="M 296.5,155.5 C 303.253,153.772 307.253,156.272 308.5,163C 307.008,169.418 303.008,171.751 296.5,170C 292.788,167.442 291.622,163.942 293,159.5C 293.69,157.65 294.856,156.316 296.5,155.5 Z"/></g>
<g><path style="opacity:1" fill="#2e4180" d="M 250.5,155.5 C 261.697,155.835 264.364,160.668 258.5,170C 249.323,172.492 245.489,168.992 247,159.5C 248.376,158.295 249.542,156.962 250.5,155.5 Z"/></g>
<g><path style="opacity:1" fill="#f5f7fa" d="M 546.5,194.5 C 538.065,188.792 528.731,184.959 518.5,183C 516.072,178.737 513.072,174.903 509.5,171.5C 511.145,169.075 512.311,166.408 513,163.5C 526.492,170.661 537.826,180.327 547,192.5C 547.692,193.437 547.525,194.103 546.5,194.5 Z"/></g>
<g><path style="opacity:1" fill="#f7f8fb" d="M 285.5,163.5 C 286.83,166.094 288.163,168.761 289.5,171.5C 287.517,173.984 285.35,176.317 283,178.5C 282.187,180.436 281.687,182.436 281.5,184.5C 270.481,186.449 260.314,190.449 251,196.5C 251.732,193.701 253.066,191.034 255,188.5C 264.193,178.79 274.36,170.457 285.5,163.5 Z"/></g>
<g><path style="opacity:1" fill="#2b3c7c" d="M 542.5,155.5 C 551.207,155.278 554.374,159.278 552,167.5C 546.885,173.075 542.219,172.742 538,166.5C 536.776,161.626 538.276,157.959 542.5,155.5 Z"/></g>
<g><path style="opacity:1" fill="#293d7f" d="M 494.5,155.5 C 502.99,153.834 506.823,157.167 506,165.5C 503.459,170.069 499.625,171.569 494.5,170C 489.232,165.171 489.232,160.337 494.5,155.5 Z"/></g>
<g><path style="opacity:1" fill="#243b82" d="M 401.5,174.5 C 396.781,175.42 393.448,173.753 391.5,169.5C 391.314,161.851 394.981,158.685 402.5,160C 407.143,162.072 408.643,165.572 407,170.5C 405.549,172.464 403.716,173.797 401.5,174.5 Z"/></g>
<g><path style="opacity:1" fill="#f4f5f9" d="M 396.5,161.5 C 402.83,160.666 405.663,163.333 405,169.5C 399.943,174.075 396.109,173.242 393.5,167C 394.124,164.915 395.124,163.082 396.5,161.5 Z"/></g>
<g><path style="opacity:1" fill="#eef0f6" d="M 542.5,157.5 C 552.228,158.032 553.894,161.865 547.5,169C 541.219,169.635 538.719,166.801 540,160.5C 541.045,159.627 541.878,158.627 542.5,157.5 Z"/></g>
<g><path style="opacity:1" fill="#f4f5f9" d="M 251.5,157.5 C 257.82,157.32 260.32,160.32 259,166.5C 255.582,170.367 252.249,170.367 249,166.5C 247.927,162.9 248.76,159.9 251.5,157.5 Z"/></g>
<g><path style="opacity:1" fill="#f4f5f9" d="M 495.5,157.5 C 501.861,156.697 504.694,159.364 504,165.5C 500.952,169.01 497.619,169.343 494,166.5C 491.788,163.021 492.288,160.021 495.5,157.5 Z"/></g>
<g><path style="opacity:1" fill="#e0233b" d="M 428.5,156.5 C 439.656,156.24 450.656,157.406 461.5,160C 468.141,161.877 474.308,164.71 480,168.5C 482.235,174.539 484.068,180.706 485.5,187C 483.732,189.61 481.732,192.11 479.5,194.5C 465.718,198.064 461.551,206.397 467,219.5C 469.743,221.788 472.577,223.955 475.5,226C 472.32,229.727 468.32,231.06 463.5,230C 460.269,227.273 457.603,224.106 455.5,220.5C 459.857,204.356 453.857,198.19 437.5,202C 431.894,206.798 429.394,212.965 430,220.5C 422.477,226.71 416.31,225.71 411.5,217.5C 426.052,213.993 429.885,205.66 423,192.5C 420.815,190.46 418.315,189.126 415.5,188.5C 415.581,182.595 412.915,178.595 407.5,176.5C 411.508,171.801 412.508,166.468 410.5,160.5C 416.484,158.515 422.484,157.182 428.5,156.5 Z"/></g>
<g><path style="opacity:1" fill="#df233b" d="M 361.5,156.5 C 369.865,156.447 378.198,156.947 386.5,158C 389.985,158.493 390.485,159.993 388,162.5C 386.347,168.378 387.847,173.212 392.5,177C 387.164,178.519 384.331,182.019 384,187.5C 374.173,191.825 370.839,199.158 374,209.5C 377.606,213.553 382.106,215.886 387.5,216.5C 386.026,223.579 381.692,226.079 374.5,224C 372.667,222.833 370.833,221.667 369,220.5C 369.594,213.852 367.761,208.019 363.5,203C 346.43,197.48 339.597,203.646 343,221.5C 340.17,227.387 335.67,230.22 329.5,230C 322.515,227.823 322.182,225.49 328.5,223C 334.22,218.116 336.053,211.95 334,204.5C 331.168,199.006 326.668,195.839 320.5,195C 318.667,192.5 316.5,190.333 314,188.5C 314.33,183.356 315.497,178.356 317.5,173.5C 331.031,164.66 345.698,158.994 361.5,156.5 Z"/></g>
<g><path style="opacity:1" fill="#f6f7fa" d="M 296.5,157.5 C 304.489,156.317 307.156,159.484 304.5,167C 297.243,169.746 294.077,167.246 295,159.5C 295.717,158.956 296.217,158.289 296.5,157.5 Z"/></g>
<g><path style="opacity:1" fill="#283e84" d="M 523.5,142.5 C 531.665,141.175 535.498,144.509 535,152.5C 532.565,157.224 528.731,158.724 523.5,157C 518.232,152.171 518.232,147.337 523.5,142.5 Z"/></g>
<g><path style="opacity:1" fill="#35437f" d="M 486.5,136.5 C 494.921,136.725 498.088,140.725 496,148.5C 490.837,154.062 486.171,153.729 482,147.5C 480.776,142.626 482.276,138.959 486.5,136.5 Z"/></g>
<g><path style="opacity:1" fill="#293c7d" d="M 306.5,136.5 C 315.56,136.046 318.727,140.046 316,148.5C 311.026,153.934 306.359,153.601 302,147.5C 300.776,142.626 302.276,138.959 306.5,136.5 Z"/></g>
<g><path style="opacity:1" fill="#2b3d7d" d="M 287.5,134.5 C 294.503,134.339 298.003,137.672 298,144.5C 296.089,149.418 292.589,151.251 287.5,150C 283.139,147.774 281.639,144.274 283,139.5C 284.025,137.313 285.525,135.646 287.5,134.5 Z"/></g>
<g><path style="opacity:1" fill="#233a81" d="M 505.5,134.5 C 513.658,133.823 517.158,137.49 516,145.5C 511.748,151.653 507.081,151.986 502,146.5C 500.593,141.643 501.76,137.643 505.5,134.5 Z"/></g>
<g><path style="opacity:1" fill="#253b81" d="M 395.5,138.5 C 403.661,137.171 407.495,140.505 407,148.5C 403.702,153.774 399.369,154.774 394,151.5C 390.513,146.754 391.013,142.42 395.5,138.5 Z"/></g>
<g><path style="opacity:1" fill="#f6f8fa" d="M 524.5,144.5 C 530.83,143.666 533.663,146.333 533,152.5C 527.943,157.075 524.109,156.242 521.5,150C 522.124,147.915 523.124,146.082 524.5,144.5 Z"/></g>
<g><path style="opacity:1" fill="#324180" d="M 268.5,142.5 C 279.515,142.065 282.515,146.565 277.5,156C 268.406,159.235 264.239,156.068 265,146.5C 266.032,144.973 267.199,143.64 268.5,142.5 Z"/></g>
<g><path style="opacity:1" fill="#f5f7fa" d="M 269.5,144.5 C 274.406,143.306 277.406,145.139 278.5,150C 276.971,155.304 273.638,156.804 268.5,154.5C 265.696,150.852 266.03,147.518 269.5,144.5 Z"/></g>
<g><path style="opacity:1" fill="#f5f6f9" d="M 396.5,140.5 C 403.163,139.333 405.997,141.999 405,148.5C 399.943,153.075 396.109,152.242 393.5,146C 394.124,143.915 395.124,142.082 396.5,140.5 Z"/></g>
<g><path style="opacity:1" fill="#f6f8fa" d="M 486.5,138.5 C 494.619,138.469 496.619,141.969 492.5,149C 483.051,149.866 481.051,146.366 486.5,138.5 Z"/></g>
<g><path style="opacity:1" fill="#eef0f5" d="M 307.5,138.5 C 313.326,138.157 315.826,140.824 315,146.5C 311.283,151.815 307.617,151.815 304,146.5C 302.78,142.707 303.947,140.04 307.5,138.5 Z"/></g>
<g><path style="opacity:1" fill="#f1f3f7" d="M 506.5,136.5 C 512.82,136.32 515.32,139.32 514,145.5C 506.363,150.882 503.029,148.882 504,139.5C 505.045,138.627 505.878,137.627 506.5,136.5 Z"/></g>
<g><path style="opacity:1" fill="#f2f3f7" d="M 288.5,136.5 C 297.156,137.978 298.489,141.812 292.5,148C 286.171,148.668 283.671,145.834 285,139.5C 286.145,138.364 287.312,137.364 288.5,136.5 Z"/></g>
<g><path style="opacity:1" fill="#2c3f82" d="M 471.5,120.5 C 482.377,119.866 485.377,124.366 480.5,134C 473.474,137.385 468.807,135.385 466.5,128C 467.33,124.809 468.997,122.309 471.5,120.5 Z"/></g>
<g><path style="opacity:1" fill="#fbfbfd" d="M 411.5,124.5 C 441.882,124.347 464.216,137.513 478.5,164C 469.393,160.97 460.059,158.303 450.5,156C 437.107,155.157 423.774,155.657 410.5,157.5C 410.897,146.488 411.23,135.488 411.5,124.5 Z"/></g>
<g><path style="opacity:1" fill="#fbfbfc" d="M 372.5,124.5 C 377.5,124.5 382.5,124.5 387.5,124.5C 388.474,127.928 389.141,131.428 389.5,135C 388.833,138.667 388.167,142.333 387.5,146C 388.416,149.432 389.083,152.932 389.5,156.5C 364.188,152.233 340.688,156.9 319,170.5C 325.217,150.277 338.384,136.444 358.5,129C 363.373,127.763 368.04,126.263 372.5,124.5 Z"/></g>
<g><path style="opacity:1" fill="#f3f5f9" d="M 471.5,122.5 C 480.487,121.665 482.82,125.165 478.5,133C 469.428,134.047 467.095,130.547 471.5,122.5 Z"/></g>
<g><path style="opacity:1" fill="#2e4283" d="M 319.5,120.5 C 327.661,119.171 331.495,122.505 331,130.5C 328.565,135.224 324.731,136.724 319.5,135C 314.232,130.171 314.232,125.337 319.5,120.5 Z"/></g>
<g><path style="opacity:1" fill="#f6f7fa" d="M 320.5,122.5 C 326.83,121.666 329.663,124.333 329,130.5C 323.943,135.075 320.109,134.242 317.5,128C 318.124,125.915 319.124,124.082 320.5,122.5 Z"/></g>
<g><path style="opacity:1" fill="#253a80" d="M 395.5,116.5 C 404.158,115.327 407.992,118.994 407,127.5C 402.62,132.343 397.954,132.677 393,128.5C 390.696,123.855 391.529,119.855 395.5,116.5 Z"/></g>
<g><path style="opacity:1" fill="#877943" d="M 379.5,122.5 C 382.962,121.518 386.629,121.185 390.5,121.5C 390.5,123.5 390.5,125.5 390.5,127.5C 389.549,126.081 389.216,124.415 389.5,122.5C 386.167,122.5 382.833,122.5 379.5,122.5 Z"/></g>
<g><path style="opacity:1" fill="#324180" d="M 337.5,108.5 C 346.491,106.993 350.325,110.66 349,119.5C 346.089,123.277 342.256,124.444 337.5,123C 332.236,118.131 332.236,113.298 337.5,108.5 Z"/></g>
<g><path style="opacity:1" fill="#2b3f82" d="M 452.5,108.5 C 461.791,106.702 465.624,110.368 464,119.5C 460.295,123.982 455.962,124.649 451,121.5C 447.725,116.796 448.225,112.462 452.5,108.5 Z"/></g>
<g><path style="opacity:1" fill="#f5f6f9" d="M 396.5,118.5 C 403.163,117.333 405.997,119.999 405,126.5C 399.943,131.075 396.109,130.242 393.5,124C 394.124,121.915 395.124,120.082 396.5,118.5 Z"/></g>
<g><path style="opacity:1" fill="#2b3f82" d="M 433.5,101.5 C 442.791,99.7017 446.624,103.368 445,112.5C 440.286,117.823 435.62,117.823 431,112.5C 429.812,108.259 430.645,104.592 433.5,101.5 Z"/></g>
<g><path style="opacity:1" fill="#293e81" d="M 357.5,101.5 C 365.661,100.171 369.495,103.505 369,111.5C 366.459,116.069 362.625,117.569 357.5,116C 352.232,111.171 352.232,106.337 357.5,101.5 Z"/></g>
<g><path style="opacity:1" fill="#f6f7fa" d="M 453.5,110.5 C 461.549,109.372 464.216,112.539 461.5,120C 451.776,122.776 449.11,119.61 453.5,110.5 Z"/></g>
<g><path style="opacity:1" fill="#f7f8fb" d="M 338.5,110.5 C 346.841,109.873 349.175,113.207 345.5,120.5C 336.419,122.192 334.086,118.858 338.5,110.5 Z"/></g>
<g><path style="opacity:1" fill="#2e4083" d="M 415.5,98.5 C 423.658,97.8229 427.158,101.49 426,109.5C 423.045,113.277 419.212,114.443 414.5,113C 409.003,107.683 409.336,102.85 415.5,98.5 Z"/></g>
<g><path style="opacity:1" fill="#f5f6f9" d="M 434.5,103.5 C 442.549,102.372 445.216,105.539 442.5,113C 432.837,115.834 430.17,112.668 434.5,103.5 Z"/></g>
<g><path style="opacity:1" fill="#f7f8fa" d="M 358.5,103.5 C 363.406,102.306 366.406,104.139 367.5,109C 364.891,115.242 361.057,116.075 356,111.5C 355.018,108.225 355.851,105.559 358.5,103.5 Z"/></g>
<g><path style="opacity:1" fill="#f5f6f9" d="M 415.5,100.5 C 420.658,99.3312 423.658,101.331 424.5,106.5C 423.132,111.078 420.132,112.578 415.5,111C 411.713,107.589 411.713,104.089 415.5,100.5 Z"/></g>
<g><path style="opacity:1" fill="#2a3d7f" d="M 376.5,98.5 C 386.043,97.5307 389.543,101.531 387,110.5C 382.667,114.5 378.333,114.5 374,110.5C 371.696,105.855 372.529,101.855 376.5,98.5 Z"/></g>
<g><path style="opacity:1" fill="#f3f5f8" d="M 377.5,100.5 C 383.83,99.6662 386.663,102.333 386,108.5C 382.288,112.415 378.622,112.415 375,108.5C 374.388,105.389 375.221,102.723 377.5,100.5 Z"/></g>
<g><path style="opacity:1" fill="#314384" d="M 282.5,279.5 C 288.059,278.231 291.892,280.231 294,285.5C 293.859,292.966 290.026,296.133 282.5,295C 275.874,289.698 275.874,284.532 282.5,279.5 Z"/></g>
<g><path style="opacity:1" fill="#f7f8fb" d="M 282.5,281.5 C 289.665,280.497 292.498,283.497 291,290.5C 287.667,294.5 284.333,294.5 281,290.5C 280.068,287.177 280.568,284.177 282.5,281.5 Z"/></g>
<g><path style="opacity:0.987" fill="#1a397f" d="M 382.5,284.5 C 496.972,282.47 584.472,329.47 645,425.5C 657.534,447.931 667.034,471.598 673.5,496.5C 698.167,496.5 722.833,496.5 747.5,496.5C 747.5,498.167 747.5,499.833 747.5,501.5C 745.876,501.36 744.71,502.027 744,503.5C 725.997,520.672 708.164,538.672 690.5,557.5C 692.839,558.418 694.339,560.084 695,562.5C 695.333,562.167 695.667,561.833 696,561.5C 696.333,562.5 696.667,563.5 697,564.5C 697.333,564.167 697.667,563.833 698,563.5C 698.333,564.5 698.667,565.5 699,566.5C 699.333,566.167 699.667,565.833 700,565.5C 707.624,571.473 714.291,577.806 720,584.5C 720.414,584.043 720.914,583.709 721.5,583.5C 726.835,588.56 732.002,593.893 737,599.5C 737.333,599.167 737.667,598.833 738,598.5C 740.772,601.448 743.939,603.782 747.5,605.5C 747.5,608.5 747.5,611.5 747.5,614.5C 724.803,614.518 702.136,614.018 679.5,613C 677.65,616.631 677.15,620.464 678,624.5C 678.497,622.19 678.663,619.857 678.5,617.5C 699.833,617.5 721.167,617.5 742.5,617.5C 742.662,619.527 742.495,621.527 742,623.5C 741.667,623.167 741.333,622.833 741,622.5C 727.602,628.409 714.602,635.076 702,642.5C 691.187,648.215 679.687,653.548 667.5,658.5C 634.735,746.763 573.735,806.263 484.5,837C 396.142,862.327 313.809,849.661 237.5,799C 187.451,763.292 152.284,716.459 132,658.5C 123.303,654.902 114.803,650.902 106.5,646.5C 105.702,644.922 105.202,643.256 105,641.5C 102.047,642.751 99.0468,642.751 96,641.5C 83.6962,635.181 71.3629,628.848 59,622.5C 58.6667,622.833 58.3333,623.167 58,623.5C 57.5045,621.527 57.3379,619.527 57.5,617.5C 78.1667,617.5 98.8333,617.5 119.5,617.5C 119.218,621.588 119.885,622.088 121.5,619C 120.713,616.901 120.38,614.734 120.5,612.5C 97.5,612.5 74.5,612.5 51.5,612.5C 51.3398,610.801 51.5065,609.134 52,607.5C 56.9969,604.899 61.8303,601.399 66.5,597C 66.1667,596.667 65.8333,596.333 65.5,596C 68.2554,594.289 70.5887,592.122 72.5,589.5C 75.3371,588.669 77.5038,587.002 79,584.5C 79.3333,584.833 79.6667,585.167 80,585.5C 80.4828,584.552 80.6495,583.552 80.5,582.5C 81.675,582.719 82.675,582.386 83.5,581.5C 87.4548,576.013 92.4548,571.68 98.5,568.5C 99.8335,566.818 101,565.151 102,563.5C 102.333,563.833 102.667,564.167 103,564.5C 104.029,561.305 106.196,559.305 109.5,558.5C 101.662,550.182 92.9952,541.182 83.5,531.5C 82.675,530.614 81.675,530.281 80.5,530.5C 80.6495,529.448 80.4828,528.448 80,527.5C 70.7631,519.629 61.4298,510.962 52,501.5C 51.5065,499.866 51.3398,498.199 51.5,496.5C 76.1667,496.5 100.833,496.5 125.5,496.5C 151.539,405.294 208.206,341.127 295.5,304C 323.678,293.202 352.678,286.702 382.5,284.5 Z M 121.5,621.5 C 122.234,622.878 122.901,624.378 123.5,626C 123,626.5 122.5,627 122,627.5C 121.505,625.527 121.338,623.527 121.5,621.5 Z"/></g>
<g><path style="opacity:1" fill="#263a7f" d="M 507.5,279.5 C 514.304,278.221 518.304,280.888 519.5,287.5C 519.167,292.5 516.5,295.167 511.5,295.5C 504.727,294.303 502.227,290.303 504,283.5C 505.376,282.295 506.542,280.962 507.5,279.5 Z"/></g>
<g><path style="opacity:1" fill="#f5f6f9" d="M 508.5,281.5 C 513.658,280.331 516.658,282.331 517.5,287.5C 516.655,292.844 513.655,294.677 508.5,293C 504.555,289.169 504.555,285.336 508.5,281.5 Z"/></g>
<g><path style="opacity:1" fill="#f7ba04" d="M 163.5,496.5 C 152.448,497.143 141.781,496.476 131.5,494.5C 157.75,406.079 213.417,343.912 298.5,308C 378.675,279.234 456.675,284.234 532.5,323C 601.964,362.305 647.298,420.471 668.5,497.5C 657.48,497.832 646.48,497.499 635.5,496.5C 607.121,411.135 549.788,355.635 463.5,330C 366.8,307.462 284.3,331.962 216,403.5C 191.758,430.646 174.258,461.646 163.5,496.5 Z"/></g>
<g><path style="opacity:1" fill="#dc243d" d="M 268.5,293.5 C 273.039,295.502 273.373,297.835 269.5,300.5C 264.507,298.845 264.174,296.511 268.5,293.5 Z"/></g>
<g><path style="opacity:1" fill="#dc243c" d="M 529.5,293.5 C 534.039,295.502 534.373,297.835 530.5,300.5C 525.507,298.845 525.174,296.511 529.5,293.5 Z"/></g>
<g><path style="opacity:1" fill="#fcfdfd" d="M 384.5,325.5 C 473.281,323.315 544.114,357.315 597,427.5C 612.191,448.883 623.358,472.216 630.5,497.5C 627.833,497.5 625.167,497.5 622.5,497.5C 603.863,438.86 567.863,394.194 514.5,363.5C 495.833,381.833 477.167,400.167 458.5,418.5C 419.05,404.588 379.883,405.254 341,420.5C 321.693,402.027 302.527,383.361 283.5,364.5C 230.446,394.993 194.779,439.326 176.5,497.5C 173.833,497.5 171.167,497.5 168.5,497.5C 193.68,420.817 244.014,367.984 319.5,339C 340.762,331.84 362.428,327.34 384.5,325.5 Z"/></g>
<g><path style="opacity:1" fill="#f7ba04" d="M 304.5,496.5 C 291.656,496.829 278.989,496.495 266.5,495.5C 276.952,474.87 291.618,457.704 310.5,444C 300.669,433.169 290.503,422.669 280,412.5C 252.419,435.333 231.919,463.333 218.5,496.5C 206.452,497.145 194.785,496.478 183.5,494.5C 201.484,441.596 234.484,400.596 282.5,371.5C 301.5,390.167 320.5,408.833 339.5,427.5C 364.948,415.87 391.614,411.704 419.5,415C 433.706,417.387 447.706,420.387 461.5,424C 479.072,405.926 497.072,388.426 515.5,371.5C 565.38,400.392 599.046,442.392 616.5,497.5C 603.496,497.667 590.496,497.5 577.5,497C 564.137,463.764 543.804,435.597 516.5,412.5C 506.984,421.182 497.984,430.349 489.5,440C 504.958,450.458 518.125,463.291 529,478.5C 529.667,479.5 529.667,480.5 529,481.5C 523.167,486.667 517.333,491.833 511.5,497C 508.118,497.824 504.784,497.657 501.5,496.5C 492.166,483.324 480.499,472.658 466.5,464.5C 456.014,475.486 445.348,486.319 434.5,497C 410.167,497.667 385.833,497.667 361.5,497C 351.931,487.599 342.598,478.099 333.5,468.5C 321.857,475.81 312.19,485.143 304.5,496.5 Z"/></g>
<g><path style="opacity:1" fill="#fcfcfd" d="M 570.5,495.5 C 554.167,496.833 537.833,496.833 521.5,495.5C 527.262,491.243 532.595,486.41 537.5,481C 527.108,464.772 514.108,450.939 498.5,439.5C 504.162,432.838 510.162,426.505 516.5,420.5C 540.609,441.033 558.609,466.033 570.5,495.5 Z"/></g>
<g><path style="opacity:1" fill="#1d3a80" d="M 388.5,446.5 C 404.098,445.693 419.431,447.193 434.5,451C 422.653,463.014 410.653,474.848 398.5,486.5C 387.014,475.514 375.681,464.348 364.5,453C 372.423,450.297 380.423,448.131 388.5,446.5 Z"/></g>
<g><path style="opacity:1" fill="#f9fafc" d="M 385.5,452.5 C 395.172,452.334 404.839,452.5 414.5,453C 417.226,453.182 419.893,453.682 422.5,454.5C 414.833,462.833 406.833,470.833 398.5,478.5C 390.5,471.167 382.833,463.5 375.5,455.5C 378.953,454.487 382.287,453.487 385.5,452.5 Z"/></g>
<g><path style="opacity:1" fill="#fbfcfd" d="M 493.5,495.5 C 477.167,496.833 460.833,496.833 444.5,495.5C 452.173,487.494 459.84,479.494 467.5,471.5C 477.463,478.139 486.13,486.139 493.5,495.5 Z"/></g>
<g><path style="opacity:0.038" fill="#101010" d="M 683.5,486.5 C 686.5,486.5 689.5,486.5 692.5,486.5C 692.936,489.364 692.103,491.697 690,493.5C 686,492.833 682,492.167 678,491.5C 677.383,490.551 677.549,489.718 678.5,489C 680.653,488.901 682.319,488.067 683.5,486.5 Z"/></g>
<g><path style="opacity:1" fill="#968239" d="M 131.5,494.5 C 141.781,496.476 152.448,497.143 163.5,496.5C 152.679,497.495 141.679,497.828 130.5,497.5C 130.263,496.209 130.596,495.209 131.5,494.5 Z"/></g>
<g><path style="opacity:1" fill="#978338" d="M 183.5,494.5 C 194.785,496.478 206.452,497.145 218.5,496.5C 206.678,497.495 194.678,497.828 182.5,497.5C 182.263,496.209 182.596,495.209 183.5,494.5 Z"/></g>
<g><path style="opacity:1" fill="#93803a" d="M 266.5,495.5 C 278.989,496.495 291.656,496.829 304.5,496.5C 291.661,497.825 278.661,497.825 265.5,496.5C 265.624,495.893 265.957,495.56 266.5,495.5 Z"/></g>
<g><path style="opacity:1" fill="#98a7c6" d="M 444.5,495.5 C 460.833,496.833 477.167,496.833 493.5,495.5C 494.043,495.56 494.376,495.893 494.5,496.5C 477.5,497.833 460.5,497.833 443.5,496.5C 443.624,495.893 443.957,495.56 444.5,495.5 Z"/></g>
<g><path style="opacity:1" fill="#98a7c6" d="M 521.5,495.5 C 537.833,496.833 554.167,496.833 570.5,495.5C 571.043,495.56 571.376,495.893 571.5,496.5C 554.176,497.666 536.843,497.833 519.5,497C 520.044,496.283 520.711,495.783 521.5,495.5 Z"/></g>
<g><path style="opacity:1" fill="#ededed" d="M 205.5,543.5 C 207.104,542.713 207.771,541.38 207.5,539.5C 201.5,539.5 195.5,539.5 189.5,539.5C 182.115,538.984 177.115,535.317 174.5,528.5C 174.608,527.558 174.941,526.725 175.5,526C 176.833,525.833 178.167,525.667 179.5,525.5C 182.336,525.706 185.002,526.373 187.5,527.5C 187.918,528.222 188.584,528.722 189.5,529C 198.343,529.824 207.01,529.657 215.5,528.5C 221.16,519.333 228.493,511.833 237.5,506C 243.778,504.184 248.945,505.684 253,510.5C 253.417,517.177 250.917,522.677 245.5,527C 238.734,531.916 231.568,536.082 224,539.5C 219.493,548.198 213.993,556.198 207.5,563.5C 206.754,564.736 206.421,566.07 206.5,567.5C 215.957,570.384 223.791,575.718 230,583.5C 230.667,587.5 230.667,591.5 230,595.5C 229.255,596.99 228.088,597.99 226.5,598.5C 221.714,594.887 217.047,591.054 212.5,587C 207.082,583.293 201.415,580.127 195.5,577.5C 189.756,580.417 184.423,583.917 179.5,588C 172.739,590.72 165.739,592.22 158.5,592.5C 149.484,593.122 142.317,589.789 137,582.5C 134.6,576.764 135.267,571.431 139,566.5C 146.836,559.039 156.169,555.706 167,556.5C 175.356,555.819 183.356,557.152 191,560.5C 196.693,555.634 201.527,549.968 205.5,543.5 Z"/></g>
<g><path style="opacity:1" fill="#ededed" d="M 378.5,597.5 C 370.493,597.666 362.493,597.5 354.5,597C 350.769,594.741 346.769,593.241 342.5,592.5C 334.03,588.023 329.03,581.023 327.5,571.5C 330.181,556.978 338.848,550.145 353.5,551C 354.022,551.561 354.355,552.228 354.5,553C 352.202,555.593 349.702,558.093 347,560.5C 342.235,570.856 344.401,579.356 353.5,586C 365.838,589.027 377.505,587.694 388.5,582C 392.445,578.565 395.778,574.732 398.5,570.5C 401.165,567.493 402.498,563.827 402.5,559.5C 393.441,561.362 384.441,562.695 375.5,563.5C 372.31,569.507 368.31,575.007 363.5,580C 360.148,582.598 356.481,583.098 352.5,581.5C 352.167,580.833 351.833,580.167 351.5,579.5C 356.64,568.553 362.307,557.886 368.5,547.5C 356.943,546.846 351.11,540.846 351,529.5C 355.273,519.231 362.773,512.398 373.5,509C 385.473,505.73 397.473,505.73 409.5,509C 425.936,516.225 430.436,528.058 423,544.5C 420.333,548.5 417,551.833 413,554.5C 416.224,569.15 411.724,580.983 399.5,590C 393.081,594.283 386.081,596.783 378.5,597.5 Z"/></g>
<g><path style="opacity:1" fill="#32477d" d="M 244.5,514.5 C 245.573,515.251 245.74,516.251 245,517.5C 242.246,520.956 238.746,522.956 234.5,523.5C 235.335,519.676 237.335,516.51 240.5,514C 242.066,513.235 243.399,513.402 244.5,514.5 Z"/></g>
<g><path style="opacity:1" fill="#14161b" d="M 244.5,514.5 C 243.117,518.394 240.451,520.561 236.5,521C 238.174,517.481 240.841,515.315 244.5,514.5 Z"/></g>
<g><path style="opacity:1" fill="#1d3a7d" d="M 368.5,533.5 C 367.127,529.692 367.46,526.026 369.5,522.5C 373.455,517.379 378.789,514.879 385.5,515C 395.026,512.653 403.193,514.82 410,521.5C 412.669,530.524 410.669,538.191 404,544.5C 400.404,542.451 396.571,541.117 392.5,540.5C 393.59,535.891 395.423,531.558 398,527.5C 398.896,524.975 398.396,522.808 396.5,521C 391.798,520.172 387.131,520.338 382.5,521.5C 379.645,526.074 376.978,530.741 374.5,535.5C 374,535.833 373.5,536.167 373,536.5C 371.357,535.685 369.857,534.685 368.5,533.5 Z"/></g>
<g><path style="opacity:1" fill="#e9e9ea" d="M 552.5,572.5 C 555.64,573.641 558.973,573.808 562.5,573C 563.942,572.623 564.942,571.79 565.5,570.5C 570.706,568.722 572.872,565.055 572,559.5C 575.683,551.985 581.183,546.318 588.5,542.5C 594.508,541.226 600.508,541.226 606.5,542.5C 610.793,544.474 612.46,547.807 611.5,552.5C 614.572,552.817 617.572,552.484 620.5,551.5C 625.591,548.577 630.258,545.077 634.5,541C 638.558,540.233 642.558,540.4 646.5,541.5C 646.833,542.167 647.167,542.833 647.5,543.5C 646.714,545.041 645.714,546.374 644.5,547.5C 642.558,552.056 641.892,557.056 642.5,562.5C 642.5,564.833 642.5,567.167 642.5,569.5C 649.913,567.786 655.58,563.619 659.5,557C 660.793,556.51 662.127,556.343 663.5,556.5C 662.375,561.819 659.709,566.319 655.5,570C 651.89,571.944 648.557,574.277 645.5,577C 639.21,578.272 633.21,580.272 627.5,583C 620.42,584.877 614.92,582.711 611,576.5C 609.574,571.243 610.741,566.743 614.5,563C 616.677,561.798 619.011,561.298 621.5,561.5C 620.422,564.43 619.922,567.43 620,570.5C 623.579,573.398 626.412,572.731 628.5,568.5C 629.805,566.603 630.471,564.269 630.5,561.5C 630.497,558.975 630.163,556.641 629.5,554.5C 626.738,555.38 624.071,556.546 621.5,558C 618.167,558.333 614.833,558.667 611.5,559C 607.037,571.131 598.704,579.131 586.5,583C 579.52,584.01 574.187,581.51 570.5,575.5C 561.839,582.249 552.172,584.416 541.5,582C 539.312,579.812 537.145,577.645 535,575.5C 529.938,579.115 524.438,581.781 518.5,583.5C 512.525,583.365 509.525,580.365 509.5,574.5C 511.548,567.065 514.715,560.065 519,553.5C 519.49,552.207 519.657,550.873 519.5,549.5C 515.497,549.971 512.331,551.971 510,555.5C 504.283,562.941 499.616,570.941 496,579.5C 492.461,584.007 488.294,584.673 483.5,581.5C 478.07,584.498 472.903,584.164 468,580.5C 467.517,579.552 467.351,578.552 467.5,577.5C 464.635,578.132 462.302,579.632 460.5,582C 456.167,584 451.833,584 447.5,582C 445.898,579.889 443.898,578.389 441.5,577.5C 422.632,588.805 414.798,583.472 418,561.5C 424.968,541.532 437.468,526.032 455.5,515C 462.754,514.211 465.588,517.377 464,524.5C 461.069,529.267 457.569,533.601 453.5,537.5C 446.242,543.046 439.076,548.713 432,554.5C 430.198,558.985 429.531,563.651 430,568.5C 436.674,573.581 440.674,571.914 442,563.5C 446.525,553.641 453.692,546.475 463.5,542C 468.968,540.776 473.968,541.61 478.5,544.5C 480.556,543.952 482.223,542.786 483.5,541C 486.833,540.333 490.167,540.333 493.5,541C 494.022,541.561 494.355,542.228 494.5,543C 490.963,550.579 486.797,557.745 482,564.5C 480.409,566.927 479.575,569.593 479.5,572.5C 482.862,572.93 485.695,571.93 488,569.5C 491.401,560.635 495.567,552.135 500.5,544C 503.86,540.903 507.86,539.736 512.5,540.5C 512.5,541.5 512.5,542.5 512.5,543.5C 516.268,541.623 520.268,540.29 524.5,539.5C 531.73,540.296 534.897,544.296 534,551.5C 532.099,556.302 529.432,560.636 526,564.5C 524.39,566.939 523.556,569.606 523.5,572.5C 527.465,572.304 530.965,570.97 534,568.5C 535.192,558.623 539.692,550.457 547.5,544C 555.597,537.994 563.431,538.16 571,544.5C 573.813,554.729 569.98,559.896 559.5,560C 557.556,557.847 557.056,555.347 558,552.5C 559.353,551.315 560.52,549.981 561.5,548.5C 560.277,547.386 558.944,547.219 557.5,548C 550.486,553.871 547.652,561.371 549,570.5C 550.113,571.305 551.279,571.972 552.5,572.5 Z"/></g>
<g><path style="opacity:0.879" fill="#17387f" d="M 51.5,519.5 C 52.675,519.281 53.675,519.614 54.5,520.5C 65.1321,532.466 76.7988,544.132 89.5,555.5C 90.4519,557.045 90.7852,558.712 90.5,560.5C 86.6925,560.802 84.1925,562.802 83,566.5C 82.6667,566.167 82.3333,565.833 82,565.5C 79.957,568.732 77.6236,571.732 75,574.5C 74.6667,574.167 74.3333,573.833 74,573.5C 72.2395,576.427 69.7395,578.427 66.5,579.5C 64.7567,581.321 63.2567,583.321 62,585.5C 61.6667,585.167 61.3333,584.833 61,584.5C 60.5172,585.448 60.3505,586.448 60.5,587.5C 58.4099,587.45 57.0766,588.45 56.5,590.5C 54.9547,591.452 53.288,591.785 51.5,591.5C 51.334,586.156 51.5006,580.823 52,575.5C 53.0658,573.901 54.5658,572.901 56.5,572.5C 57.2508,571.624 57.7508,570.624 58,569.5C 58.3333,569.833 58.6667,570.167 59,570.5C 61.1644,568.52 62.6644,566.187 63.5,563.5C 64.552,563.649 65.552,563.483 66.5,563C 66.1667,562.667 65.8333,562.333 65.5,562C 67.5968,560.39 69.9302,559.223 72.5,558.5C 69.3724,555.251 66.3724,552.918 63.5,551.5C 63.6495,550.448 63.4828,549.448 63,548.5C 62.6667,548.833 62.3333,549.167 62,549.5C 59.3669,545.2 56.0335,541.533 52,538.5C 51.5005,532.175 51.3338,525.842 51.5,519.5 Z"/></g>
<g><path style="opacity:0.855" fill="#173880" d="M 743.5,519.5 C 744.833,519.5 746.167,519.5 747.5,519.5C 747.5,525.833 747.5,532.167 747.5,538.5C 743.919,539.578 741.419,541.912 740,545.5C 739.667,545.167 739.333,544.833 739,544.5C 736.122,549.232 731.956,553.565 726.5,557.5C 733.71,562.196 739.71,567.529 744.5,573.5C 745.325,574.386 746.325,574.719 747.5,574.5C 747.5,579.5 747.5,584.5 747.5,589.5C 745.5,589.5 743.5,589.5 741.5,589.5C 738.642,583.969 733.975,579.302 727.5,575.5C 726.614,574.675 726.281,573.675 726.5,572.5C 724.516,572.617 722.85,571.95 721.5,570.5C 718.797,567.534 716.131,564.534 713.5,561.5C 712.264,560.754 710.93,560.421 709.5,560.5C 709.5,558.833 709.5,557.167 709.5,555.5C 710.5,555.5 711.5,555.5 712.5,555.5C 712.967,553.289 713.967,551.289 715.5,549.5C 724.082,540.142 733.082,531.142 742.5,522.5C 743.386,521.675 743.719,520.675 743.5,519.5 Z"/></g>
<g><path style="opacity:1" fill="#808185" d="M 369.5,522.5 C 367.46,526.026 367.127,529.692 368.5,533.5C 367.883,533.389 367.383,533.056 367,532.5C 366.333,529.833 366.333,527.167 367,524.5C 367.708,523.619 368.542,522.953 369.5,522.5 Z"/></g>
<g><path style="opacity:1" fill="#7d818a" d="M 187.5,527.5 C 196.805,528.354 206.139,528.687 215.5,528.5C 207.01,529.657 198.343,529.824 189.5,529C 188.584,528.722 187.918,528.222 187.5,527.5 Z"/></g>
<g><path style="opacity:1" fill="#626262" d="M 453.5,524.5 C 454.5,524.5 455.5,524.5 456.5,524.5C 454.291,528.719 451.291,532.386 447.5,535.5C 446.417,534.635 446.251,533.635 447,532.5C 449.415,529.986 451.581,527.319 453.5,524.5 Z"/></g>
<g><path style="opacity:1" fill="#9c9d9f" d="M 189.5,539.5 C 195.5,539.5 201.5,539.5 207.5,539.5C 207.771,541.38 207.104,542.713 205.5,543.5C 200.418,541.66 195.084,540.326 189.5,539.5 Z"/></g>
<g><path style="opacity:1" fill="#9ea0a3" d="M 263.5,542.5 C 257.842,541.232 252.175,541.232 246.5,542.5C 250.701,539.748 255.368,538.914 260.5,540C 261.571,540.852 262.571,541.685 263.5,542.5 Z"/></g>
<g><path style="opacity:1" fill="#93959b" d="M 606.5,542.5 C 600.508,541.226 594.508,541.226 588.5,542.5C 592.662,539.64 597.328,538.807 602.5,540C 604.066,540.608 605.4,541.442 606.5,542.5 Z"/></g>
<g><path style="opacity:1" fill="#e9e9e9" d="M 288.5,581.5 C 283.833,581.5 279.167,581.5 274.5,581.5C 268.852,578.573 267.019,573.906 269,567.5C 270.491,562.842 273.658,560.842 278.5,561.5C 277.946,564.562 277.446,567.562 277,570.5C 278.466,572.325 280.299,572.825 282.5,572C 287.038,567.085 288.705,561.251 287.5,554.5C 284.53,555.549 281.53,556.716 278.5,558C 275.167,558.333 271.833,558.667 268.5,559C 264.52,570.98 256.52,578.98 244.5,583C 237.793,584.325 232.627,582.158 229,576.5C 226.425,564.353 229.925,554.186 239.5,546C 241.577,544.295 243.91,543.128 246.5,542.5C 252.175,541.232 257.842,541.232 263.5,542.5C 267.518,544.539 269.518,547.872 269.5,552.5C 277.885,552.473 284.552,548.973 289.5,542C 294.076,540.524 298.743,540.19 303.5,541C 305.983,543.796 305.317,545.963 301.5,547.5C 300.686,554.831 300.019,562.165 299.5,569.5C 306.951,567.899 312.617,563.732 316.5,557C 317.793,556.51 319.127,556.343 320.5,556.5C 320.66,558.199 320.494,559.866 320,561.5C 311.908,572.117 301.408,578.784 288.5,581.5 Z"/></g>
<g><path style="opacity:1" fill="#203977" d="M 385.5,548.5 C 388.786,549.207 392.119,549.54 395.5,549.5C 395.5,550.5 395.5,551.5 395.5,552.5C 392.124,552.474 388.958,553.141 386,554.5C 384.833,554.167 383.667,553.833 382.5,553.5C 383.554,551.799 384.554,550.132 385.5,548.5 Z"/></g>
<g><path style="opacity:1" fill="#1a397e" d="M 251.5,548.5 C 253.167,548.5 254.833,548.5 256.5,548.5C 256.338,550.527 256.505,552.527 257,554.5C 258.353,555.685 259.52,557.019 260.5,558.5C 258.033,564.638 253.699,568.638 247.5,570.5C 245.088,570.594 243.255,569.594 242,567.5C 240.925,558.982 244.092,552.649 251.5,548.5 Z"/></g>
<g><path style="opacity:1" fill="#1d3a7d" d="M 592.5,548.5 C 594.833,548.5 597.167,548.5 599.5,548.5C 599.825,553.069 600.658,557.402 602,561.5C 597.929,568.618 592.263,570.952 585,568.5C 583.462,560.276 585.962,553.609 592.5,548.5 Z"/></g>
<g><path style="opacity:1" fill="#1f3a7c" d="M 463.5,552.5 C 467.167,552.5 470.833,552.5 474.5,552.5C 474.657,553.873 474.49,555.207 474,556.5C 470.608,561.9 466.441,566.733 461.5,571C 459.19,571.497 456.857,571.663 454.5,571.5C 454.481,569.94 454.148,568.44 453.5,567C 455.514,561.17 458.848,556.336 463.5,552.5 Z"/></g>
<g><path style="opacity:1" fill="#85878b" d="M 644.5,547.5 C 643.879,552.602 643.213,557.602 642.5,562.5C 641.892,557.056 642.558,552.056 644.5,547.5 Z"/></g>
<g><path style="opacity:1" fill="#7a7d86" d="M 629.5,554.5 C 630.163,556.641 630.497,558.975 630.5,561.5C 630.471,564.269 629.805,566.603 628.5,568.5C 629.383,563.897 629.717,559.23 629.5,554.5 Z"/></g>
<g><path style="opacity:1" fill="#93969c" d="M 398.5,570.5 C 399.323,567.539 399.99,564.539 400.5,561.5C 392.25,563.05 383.916,563.717 375.5,563.5C 384.441,562.695 393.441,561.362 402.5,559.5C 402.498,563.827 401.165,567.493 398.5,570.5 Z"/></g>
<g><path style="opacity:1" fill="#1c3a7e" d="M 153.5,567.5 C 162.714,566.844 171.714,567.844 180.5,570.5C 181.386,571.325 181.719,572.325 181.5,573.5C 176.623,576.202 171.623,578.702 166.5,581C 161.833,581.667 157.167,581.667 152.5,581C 148.349,576.209 148.682,571.709 153.5,567.5 Z"/></g>
<g><path style="opacity:1" fill="#676f84" d="M 565.5,570.5 C 564.942,571.79 563.942,572.623 562.5,573C 558.973,573.808 555.64,573.641 552.5,572.5C 556.993,572.731 561.326,572.064 565.5,570.5 Z"/></g>
<g><path style="opacity:1" fill="#81848b" d="M 274.5,581.5 C 279.167,581.5 283.833,581.5 288.5,581.5C 286.321,582.926 283.821,583.592 281,583.5C 278.456,583.664 276.29,582.997 274.5,581.5 Z"/></g>
<g><path style="opacity:1" fill="#b3b3b4" d="M 342.5,592.5 C 346.769,593.241 350.769,594.741 354.5,597C 362.493,597.5 370.493,597.666 378.5,597.5C 375.282,598.954 371.782,599.621 368,599.5C 358.549,600.028 350.049,597.695 342.5,592.5 Z"/></g>
<g><path style="opacity:1" fill="#6b6951" d="M 208.5,612.5 C 197.833,612.5 187.167,612.5 176.5,612.5C 176.5,613.5 176.5,614.5 176.5,615.5C 175.566,614.432 175.232,613.099 175.5,611.5C 186.679,611.172 197.679,611.505 208.5,612.5 Z"/></g>
<g><path style="opacity:1" fill="#687eac" d="M 251.5,612.5 C 239.12,611.854 227.12,612.521 215.5,614.5C 214.596,613.791 214.263,612.791 214.5,611.5C 227.011,611.171 239.345,611.505 251.5,612.5 Z"/></g>
<g><path style="opacity:1" fill="#686853" d="M 293.5,612.5 C 281.655,612.172 269.988,612.505 258.5,613.5C 257.957,613.44 257.624,613.107 257.5,612.5C 269.66,611.175 281.66,611.175 293.5,612.5 Z"/></g>
<g><path style="opacity:1" fill="#6b80ad" d="M 580.5,614.5 C 571.358,613.168 561.858,612.502 552,612.5C 542.327,612.5 532.827,612.834 523.5,613.5C 522.711,613.217 522.044,612.717 521.5,612C 541.497,611.5 561.497,611.333 581.5,611.5C 581.737,612.791 581.404,613.791 580.5,614.5 Z"/></g>
<g><path style="opacity:1" fill="#666654" d="M 641.5,612.5 C 652.34,611.176 663.34,611.176 674.5,612.5C 674.376,613.107 674.043,613.44 673.5,613.5C 663.013,612.506 652.346,612.172 641.5,612.5 Z"/></g>
<g><path style="opacity:1" fill="#f7bb04" d="M 641.5,612.5 C 652.346,612.172 663.013,612.506 673.5,613.5C 659.451,690.124 620.784,750.958 557.5,796C 479.231,846.71 395.564,857.71 306.5,829C 216.36,794.49 157.86,730.99 131,638.5C 128.529,629.951 126.695,621.284 125.5,612.5C 136.5,612.5 147.5,612.5 158.5,612.5C 175.188,693.064 220.188,751.898 293.5,789C 364.13,820.332 434.797,820.332 505.5,789C 578.779,751.866 624.113,693.033 641.5,612.5 Z"/></g>
<g><path style="opacity:1" fill="#fdfdfd" d="M 215.5,614.5 C 227.12,612.521 239.12,611.854 251.5,612.5C 270.548,663.214 305.881,696.881 357.5,713.5C 357.5,727.833 357.5,742.167 357.5,756.5C 370.344,756.829 383.011,756.495 395.5,755.5C 395.5,743.833 395.5,732.167 395.5,720.5C 406.537,720.243 417.537,719.743 428.5,719C 448.931,740.266 469.597,761.432 490.5,782.5C 554.839,755.305 598.673,708.305 622,641.5C 624.973,631.943 627.473,622.276 629.5,612.5C 631.833,612.5 634.167,612.5 636.5,612.5C 617.449,700.385 566.115,760.885 482.5,794C 387.79,824.528 303.79,806.528 230.5,740C 195.11,704.392 172.443,661.892 162.5,612.5C 165.119,612.232 167.619,612.565 170,613.5C 178.311,653.452 195.644,688.785 222,719.5C 234.365,708.342 246.198,696.508 257.5,684C 237.096,664.75 223.096,641.583 215.5,614.5 Z"/></g>
<g><path style="opacity:1" fill="#f8bb04" d="M 208.5,612.5 C 215.793,639.911 229.46,663.744 249.5,684C 240.264,693.068 231.264,702.234 222.5,711.5C 199.682,683.193 184.348,651.193 176.5,615.5C 176.5,614.5 176.5,613.5 176.5,612.5C 187.167,612.5 197.833,612.5 208.5,612.5 Z"/></g>
<g><path style="opacity:1" fill="#f8bb04" d="M 293.5,612.5 C 307.904,643.067 331.071,664.067 363,675.5C 363.5,654.503 363.667,633.503 363.5,612.5C 372.167,612.5 380.833,612.5 389.5,612.5C 389.5,615.833 389.5,619.167 389.5,622.5C 404.833,622.5 420.167,622.5 435.5,622.5C 435.5,629.833 435.5,637.167 435.5,644.5C 420.5,644.5 405.5,644.5 390.5,644.5C 390.5,656.833 390.5,669.167 390.5,681.5C 433.346,684.561 469.013,670.228 497.5,638.5C 505.202,646.2 512.535,654.2 519.5,662.5C 485.956,698.756 444.29,716.089 394.5,714.5C 393.081,713.549 391.415,713.216 389.5,713.5C 389.5,725.833 389.5,738.167 389.5,750.5C 380.833,750.5 372.167,750.5 363.5,750.5C 363.833,736.817 363.499,723.15 362.5,709.5C 312.098,694.428 277.432,662.428 258.5,613.5C 269.988,612.505 281.655,612.172 293.5,612.5 Z"/></g>
<g><path style="opacity:1" fill="#fcfcfd" d="M 300.5,612.5 C 308.174,612.334 315.841,612.5 323.5,613C 334.667,624.167 345.833,635.333 357,646.5C 357.831,653.192 357.664,659.858 356.5,666.5C 330.908,655.573 312.241,637.573 300.5,612.5 Z"/></g>
<g><path style="opacity:1" fill="#fcfcfd" d="M 580.5,614.5 C 576.976,628.396 571.309,641.396 563.5,653.5C 549.812,640.479 536.479,627.146 523.5,613.5C 532.827,612.834 542.327,612.5 552,612.5C 561.858,612.502 571.358,613.168 580.5,614.5 Z"/></g>
<g><path style="opacity:1" fill="#f7ba04" d="M 587.5,612.5 C 599.5,612.5 611.5,612.5 623.5,612.5C 615.973,649.883 600.14,683.217 576,712.5C 566.171,703.357 556.671,693.857 547.5,684C 567.165,663.85 580.498,640.016 587.5,612.5 Z"/></g>
<g><path style="opacity:1" fill="#4c5763" d="M 389.5,612.5 C 390.477,615.287 390.81,618.287 390.5,621.5C 405.676,621.171 420.676,621.504 435.5,622.5C 420.167,622.5 404.833,622.5 389.5,622.5C 389.5,619.167 389.5,615.833 389.5,612.5 Z"/></g>
<g><path style="opacity:1" fill="#75714b" d="M 394.5,714.5 C 393.167,714.5 391.833,714.5 390.5,714.5C 390.828,726.678 390.495,738.678 389.5,750.5C 389.5,738.167 389.5,725.833 389.5,713.5C 391.415,713.216 393.081,713.549 394.5,714.5 Z"/></g>
<g><path style="opacity:1" fill="#6379a9" d="M 357.5,713.5 C 358.496,727.323 358.829,741.323 358.5,755.5C 370.833,755.5 383.167,755.5 395.5,755.5C 383.011,756.495 370.344,756.829 357.5,756.5C 357.5,742.167 357.5,727.833 357.5,713.5 Z"/></g>
</svg>
