<?xml version="1.0" encoding="UTF-8"?>
<svg version="1.1" xmlns="http://www.w3.org/2000/svg" width="849" height="490">
<path d="M0 0 C1.11432019 -0.00570851 1.11432019 -0.00570851 2.25115189 -0.01153234 C4.74827578 -0.02186454 7.24517304 -0.01793897 9.74231243 -0.01409245 C11.54759099 -0.01854396 13.35286759 -0.02385771 15.15814131 -0.02996117 C20.125304 -0.04416186 25.09240418 -0.04580407 30.05958426 -0.04536426 C35.41417752 -0.04701063 40.76874488 -0.06007369 46.12332439 -0.07155704 C57.83393542 -0.09441931 69.54452834 -0.10232883 81.25515866 -0.10738349 C88.56520721 -0.11063878 95.87525049 -0.1171602 103.18529606 -0.12438488 C123.41925703 -0.14395163 143.6532131 -0.16035566 163.88718414 -0.16326141 C165.82987258 -0.16354277 165.82987258 -0.16354277 167.81180726 -0.16382981 C170.43740825 -0.16419606 173.06300924 -0.16455976 175.68861023 -0.16492092 C177.64367312 -0.16519514 177.64367312 -0.16519514 179.63823223 -0.16547489 C180.94319551 -0.16565544 182.24815879 -0.16583599 183.59266641 -0.16602201 C204.74546425 -0.16956489 225.89816036 -0.19659407 247.05092291 -0.23397278 C268.76092353 -0.27202967 290.47087365 -0.29141869 312.18090838 -0.29172093 C324.37328 -0.29230605 336.56553024 -0.30083366 348.75787067 -0.32971859 C359.1381695 -0.35419732 369.51830268 -0.361539 379.89862255 -0.34647106 C385.19584163 -0.3392881 390.49273338 -0.34021951 395.78991604 -0.36288166 C400.63905546 -0.38342852 405.487615 -0.3809114 410.33674785 -0.36000682 C412.0911076 -0.35650372 413.84550882 -0.36145651 415.59981415 -0.37571125 C432.64486091 -0.5052877 432.64486091 -0.5052877 438.56669903 5.26006222 C443.40771906 10.59759712 443.76000504 14.16003268 443.75419903 21.19756222 C443.75407818 22.56135006 443.75407818 22.56135006 443.75395489 23.95268917 C443.69017398 31.97364142 443.21723646 39.94950546 442.62919903 47.94756222 C442.54242901 49.13535275 442.45565899 50.32314327 442.36625957 51.54692745 C441.69949395 59.99447238 441.69949395 59.99447238 440.56669903 62.26006222 C440.34728683 63.85129642 440.17610051 65.44935253 440.03154278 67.04912472 C439.94453106 67.99014034 439.85751934 68.93115597 439.7678709 69.90068722 C439.63735332 71.37795284 439.63735332 71.37795284 439.50419903 72.88506222 C439.41332012 73.87764034 439.32244122 74.87021847 439.2288084 75.89287472 C439.00451467 78.3483009 438.78396796 80.80400611 438.56669903 83.26006222 C440.20041958 83.25340038 440.20041958 83.25340038 441.86714458 83.24660397 C452.13713172 83.20604018 462.40710258 83.17606928 472.67715168 83.15643787 C477.95693714 83.14600587 483.23665786 83.1318572 488.51640606 83.10918331 C493.61275016 83.0874343 498.70903204 83.0754892 503.80541897 83.07030773 C505.74864843 83.06661569 507.69187454 83.05940606 509.63507748 83.0486021 C512.35926677 83.03405993 515.08319974 83.03208543 517.80742168 83.03301144 C518.60871502 83.02582088 519.41000835 83.01863033 520.23558331 83.01122189 C524.75237985 83.02780832 528.30669691 83.57923328 532.56669903 85.26006222 C533.49869122 85.53205441 534.4306834 85.80404659 535.39091778 86.08428097 C547.2010973 89.64505815 555.26410728 95.25804041 563.27763653 104.61162472 C565.59747467 107.29566953 568.04921496 109.76139343 570.56669903 112.26006222 C572.73286233 114.53292963 574.86929126 116.83285758 577.00419903 119.13506222 C577.55140606 119.72158566 578.09861309 120.30810909 578.66240215 120.91240597 C581.47002082 123.9359953 584.24718581 126.98616178 586.97685528 130.08037472 C587.47451397 130.6425671 587.97217266 131.20475948 588.48491192 131.783988 C589.56669903 133.26006222 589.56669903 133.26006222 589.56669903 135.26006222 C590.10939434 135.46760128 590.65208965 135.67514034 591.21123028 135.88896847 C594.46860464 137.78505205 596.76019822 140.42343524 599.25419903 143.19756222 C599.78094219 143.77441769 600.30768536 144.35127316 600.85039043 144.94560909 C604.95144947 149.47554517 608.78135707 154.18086812 612.59404278 158.95537472 C614.30191302 160.95070827 615.93876384 162.53248359 618.00419903 164.13506222 C620.78827834 166.44381091 621.32025318 167.96588389 622.56669903 171.26006222 C623.49482403 171.72412472 623.49482403 171.72412472 624.44169903 172.19756222 C627.58051189 173.76696865 628.71887575 176.33930929 630.56669903 179.26006222 C631.2879295 179.87107784 631.2879295 179.87107784 632.02373028 180.49443722 C634.3380445 183.14271577 635.15355032 186.27547883 636.19169903 189.57256222 C636.51654278 190.54999386 636.51654278 190.54999386 636.84794903 191.54717159 C641.44126388 205.70989239 639.2195173 220.37414936 638.07060528 234.95146847 C637.91580933 236.94875849 637.76126739 238.94606821 637.60696697 240.94339657 C637.28437173 245.10654519 636.95873749 249.26944174 636.63090801 253.43218136 C636.2103872 258.77504658 635.79752783 264.11847198 635.38689041 269.4621048 C635.06994275 273.57572805 634.74901113 277.68903289 634.42685032 281.80225086 C634.27291575 283.77379892 634.12022871 285.74544478 633.96880054 287.71718693 C633.75752158 290.46041204 633.54089651 293.2031627 633.32280254 295.94585323 C633.26094265 296.76294765 633.19908276 297.58004208 633.13534832 298.42189693 C632.68097309 304.0315141 632.68097309 304.0315141 631.56669903 306.26006222 C631.35632496 308.19716994 631.14999528 310.1348771 630.97221661 312.07524776 C630.01078094 322.26129799 628.6073378 329.19241132 620.54326153 336.03349972 C614.94738064 339.5060424 609.55251568 339.51694518 603.19169903 339.38506222 C602.36025372 339.37603878 601.5288084 339.36701534 600.67216778 339.35771847 C598.63688566 339.33432442 596.60175339 339.29845947 594.56669903 339.26006222 C594.51062481 337.30326534 594.51062481 337.30326534 594.45341778 335.30693722 C594.13989066 326.42876674 593.75772327 318.04543972 591.18779278 309.47490597 C590.56669903 307.26006222 590.56669903 307.26006222 590.56669903 304.26006222 C589.90669903 304.26006222 589.24669903 304.26006222 588.56669903 304.26006222 C588.2753709 303.47502316 587.98404278 302.68998409 587.68388653 301.88115597 C585.10174474 295.26340265 582.47675361 290.34941654 577.56669903 285.26006222 C576.66951153 284.02256222 576.66951153 284.02256222 575.75419903 282.76006222 C570.42301077 276.66727564 563.87637021 272.58264003 556.56669903 269.26006222 C556.56669903 268.60006222 556.56669903 267.94006222 556.56669903 267.26006222 C554.92167294 266.79883995 553.27562206 266.34127271 551.62919903 265.88506222 C550.71267559 265.62982784 549.79615215 265.37459347 548.85185528 265.11162472 C547.22570293 264.69010128 547.22570293 264.69010128 545.56669903 264.26006222 C544.93046612 264.08362179 544.29423321 263.90718136 543.63872051 263.72539425 C536.94372983 262.02082496 530.3885386 261.87685393 523.50419903 261.88506222 C522.31423321 261.88449825 521.12426739 261.88393429 519.898242 261.88335323 C510.5074811 262.00011565 502.48254181 263.40653413 493.56669903 266.26006222 C491.90527775 266.61862633 490.24009749 266.96236024 488.56669903 267.26006222 C488.56669903 267.92006222 488.56669903 268.58006222 488.56669903 269.26006222 C486.61084578 270.26490425 484.65193666 271.26380027 482.69169903 272.26006222 C481.60115215 272.81693722 480.51060528 273.37381222 479.38701153 273.94756222 C476.56669903 275.26006222 476.56669903 275.26006222 474.56669903 275.26006222 C474.56669903 275.92006222 474.56669903 276.58006222 474.56669903 277.26006222 C473.04812359 278.404154 471.47467761 279.47591259 469.87919903 280.51006222 C465.59549514 283.40625806 462.68017283 286.17362786 459.56669903 290.26006222 C458.57669903 290.75506222 458.57669903 290.75506222 457.56669903 291.26006222 C456.51080834 292.89189328 455.52308643 294.56799221 454.56669903 296.26006222 C454.0484959 297.15918331 454.0484959 297.15918331 453.51982403 298.07646847 C451.47218577 301.62968617 451.47218577 301.62968617 449.56669903 305.26006222 C448.90669903 305.26006222 448.24669903 305.26006222 447.56669903 305.26006222 C446.97888653 307.05443722 446.97888653 307.05443722 446.37919903 308.88506222 C445.41355107 311.80959602 444.40161272 314.70236893 443.32451153 317.58818722 C442.8888084 318.75865597 442.45310528 319.92912472 442.00419903 321.13506222 C441.38351543 322.77088253 441.38351543 322.77088253 440.75029278 324.43974972 C439.25497587 329.26621815 438.47057106 334.28876605 437.56669903 339.26006222 C352.75669903 339.26006222 267.94669903 339.26006222 180.56669903 339.26006222 C180.56669903 335.30006222 180.56669903 331.34006222 180.56669903 327.26006222 C179.91976715 319.69476467 178.59474507 312.44168297 176.15263653 305.24834347 C175.56669903 303.26006222 175.56669903 303.26006222 175.56669903 300.26006222 C174.90669903 299.93006222 174.24669903 299.60006222 173.56669903 299.26006222 C172.69300235 297.82554673 171.86773185 296.36138433 171.06669903 294.88506222 C167.54243574 288.8397294 162.00595281 280.47968911 155.56669903 277.26006222 C155.56669903 276.60006222 155.56669903 275.94006222 155.56669903 275.26006222 C154.99435528 274.97389034 154.42201153 274.68771847 153.83232403 274.39287472 C148.69951153 271.82646847 148.69951153 271.82646847 143.56669903 269.26006222 C143.56669903 268.60006222 143.56669903 267.94006222 143.56669903 267.26006222 C142.87962872 267.13760128 142.1925584 267.01514034 141.48466778 266.88896847 C138.56669903 266.26006222 138.56669903 266.26006222 135.49248028 265.28740597 C117.11828362 259.74535098 97.8143505 260.87018651 79.56669903 266.26006222 C77.9044009 266.61453904 76.23921059 266.95741727 74.56669903 267.26006222 C74.56669903 267.92006222 74.56669903 268.58006222 74.56669903 269.26006222 C73.82806622 269.58877316 73.0894334 269.91748409 72.32841778 270.25615597 C64.42118241 273.96361448 58.04672195 278.42701464 51.56669903 284.26006222 C50.90798809 284.84787472 50.24927715 285.43568722 49.57060528 286.04131222 C42.59407004 292.62939895 37.57644212 300.59901714 33.56669903 309.26006222 C32.90669903 309.26006222 32.24669903 309.26006222 31.56669903 309.26006222 C31.44294903 309.93295284 31.31919903 310.60584347 31.19169903 311.29912472 C30.1824593 316.08039791 28.80824426 320.7630129 27.50419903 325.47099972 C26.49881624 329.23343953 26.49881624 329.23343953 26.06669903 333.04912472 C25.56669903 336.26006222 25.56669903 336.26006222 23.56669903 339.26006222 C21.09546185 339.64774227 21.09546185 339.64774227 17.94291973 339.66411495 C16.76441952 339.67679913 15.5859193 339.6894833 14.37170696 339.70255184 C12.45148975 339.69814838 12.45148975 339.69814838 10.49248028 339.69365597 C9.18014919 339.69889782 7.86781811 339.70413967 6.51571941 339.70954037 C3.73224086 339.71848742 0.94904887 339.71603392 -1.83442402 339.70610714 C-5.38763349 339.69466575 -8.93984199 339.71474436 -12.49291992 339.74402428 C-15.89367097 339.76689125 -19.29419379 339.75991341 -22.69501972 339.75615597 C-24.6000552 339.77300694 -24.6000552 339.77300694 -26.54357624 339.79019833 C-34.42558759 339.72828492 -39.19533034 339.06093274 -45.17548847 333.69756222 C-49.50412035 328.20467763 -49.60708544 324.01216065 -49.57343769 317.17534542 C-49.57094454 316.38064752 -49.56845139 315.58594961 -49.56588268 314.76716995 C-49.49084661 306.02074704 -48.87499584 297.33189134 -48.19111347 288.61553097 C-48.06101896 286.9044838 -47.93129653 285.1934083 -47.8019228 283.48230648 C-47.53235983 279.93837802 -47.25783596 276.39487956 -46.97968769 272.85161495 C-46.62427111 268.31779367 -46.28253022 263.78305602 -45.94447231 259.24791145 C-45.68080551 255.73273766 -45.40960175 252.21817629 -45.1361475 248.70375156 C-45.00695039 247.03062912 -44.88018151 245.35731725 -44.75593662 243.68381977 C-44.5820651 241.35593461 -44.39793708 239.02907915 -44.211133 236.70220089 C-44.13776218 235.67754726 -44.13776218 235.67754726 -44.06290913 234.63219357 C-43.74590794 230.83798443 -43.04758036 227.71275599 -41.43330097 224.26006222 C-40.00629368 224.25459377 -40.00629368 224.25459377 -38.55045795 224.24901485 C-29.57527566 224.21203805 -20.60043563 224.15423614 -11.62551403 224.07615948 C-7.01162407 224.03668749 -2.39792488 224.00449769 2.21611309 223.98906612 C6.67080179 223.97389763 11.12496602 223.9394489 15.57942104 223.8917532 C17.27697847 223.87694134 18.97461079 223.86902131 20.67223263 223.86817837 C23.05444978 223.86580628 25.43522033 223.83870965 27.81718731 223.80596066 C28.86484013 223.8135062 28.86484013 223.8135062 29.93365765 223.82120419 C34.8865941 223.71618164 37.78282337 222.42051053 41.56669903 219.26006222 C42.4868575 216.49958679 42.75937148 214.62643953 42.81669903 211.76006222 C42.84248028 210.98662472 42.86826153 210.21318722 42.89482403 209.41631222 C42.48356396 206.71374608 41.71221894 205.90429243 39.56669903 204.26006222 C35.92978417 203.04775727 32.58988069 203.10678251 28.80298138 203.10184383 C27.6046974 203.09443687 27.6046974 203.09443687 26.38220567 203.08688027 C23.69671665 203.07148257 21.01125159 203.06313849 18.32573223 203.05473995 C16.40412974 203.04516321 14.48252936 203.03515326 12.56093121 203.02474117 C7.33608239 202.99766392 2.11122451 202.97666962 -3.11365581 202.95673919 C-8.5709545 202.93489703 -14.02822518 202.90749969 -19.48550129 202.88068295 C-29.82330692 202.83073209 -40.16112808 202.78580214 -50.49896413 202.74266058 C-62.26666386 202.69330864 -74.03433548 202.63838294 -85.80200803 202.58298099 C-110.0124128 202.46912422 -134.22284452 202.36229322 -158.43330097 202.26006222 C-158.43330097 201.60006222 -158.43330097 200.94006222 -158.43330097 200.26006222 C-159.19642597 200.05381222 -159.95955097 199.84756222 -160.74580097 199.63506222 C-164.44638813 197.74173855 -165.14604345 196.1933491 -166.43330097 192.26006222 C-166.72925364 187.39425217 -166.0694417 183.55557417 -162.99580097 179.69756222 C-160.43330097 177.26006222 -160.43330097 177.26006222 -158.43330097 177.26006222 C-158.43330097 176.60006222 -158.43330097 175.94006222 -158.43330097 175.26006222 C-155.4647021 174.4047734 -152.82359446 174.13293462 -149.73838615 174.12698364 C-148.79298865 174.1227426 -147.84759114 174.11850155 -146.87354523 174.11413199 C-145.83805115 174.11451812 -144.80255708 174.11490425 -143.73568439 174.11530209 C-142.63323539 174.11177524 -141.53078638 174.10824839 -140.39492983 174.10461468 C-136.6877453 174.09390994 -132.98058645 174.09024363 -129.27338886 174.08647823 C-126.62084448 174.08017442 -123.96830417 174.07346766 -121.31576252 174.06621456 C-115.59728105 174.05127921 -109.87880088 174.03973323 -104.16030788 174.03026676 C-95.88686242 174.0163923 -87.61344746 173.99520456 -79.34002393 173.97183823 C-65.90994183 173.93392257 -52.47985422 173.89895622 -39.04975605 173.86723995 C-38.24586362 173.86533946 -37.44197119 173.86343897 -36.61371838 173.86148088 C-25.20326196 173.83464417 -13.79280125 173.81077063 -2.38233589 173.78809588 C-1.57874665 173.78649858 -0.77515742 173.78490128 0.05278301 173.78325558 C1.25669936 173.78086538 1.25669936 173.78086538 2.48493724 173.77842689 C15.8633274 173.75166773 29.24168495 173.71727315 42.62004 173.67660183 C50.87346115 173.65181812 59.12684721 173.63349631 67.38029969 173.62344622 C73.03458876 173.61605982 78.6888307 173.60154054 84.34308856 173.58138198 C87.60646308 173.56998242 90.86974655 173.56294081 94.13314342 173.56239033 C97.66955866 173.56131185 101.2057258 173.5481002 104.74209881 173.53180599 C105.77536216 173.53442285 106.80862552 173.5370397 107.87319988 173.53973585 C108.82120513 173.53288706 109.76921039 173.52603827 110.74594307 173.51898193 C111.9701366 173.51637756 111.9701366 173.51637756 113.21906132 173.51372057 C115.97436897 173.21601416 118.08638789 172.48696632 120.56669903 171.26006222 C122.19553967 167.1253129 122.05380391 161.66877417 121.56669903 157.26006222 C119.84443407 154.01156245 119.84443407 154.01156245 116.56669903 153.26006222 C113.59862726 153.17093362 110.65455287 153.14030022 107.68666363 153.15567684 C106.76756761 153.15638339 105.8484716 153.15708994 104.90152419 153.1578179 C101.80860807 153.161204 98.7157522 153.17156522 95.62285137 153.18169308 C93.41043964 153.18520794 91.19802698 153.18817543 88.98561382 153.19063473 C84.21384274 153.19631584 79.44208293 153.20433235 74.67031765 153.21365833 C67.12328161 153.2268162 59.57629678 153.22510922 52.02925396 153.21942806 C50.75620195 153.21850798 49.48314994 153.2175879 48.17152059 153.21663994 C44.2498612 153.21366829 40.328202 153.21050318 36.40654278 153.20732784 C31.03007816 153.20309526 25.65361393 153.19939227 20.27714825 153.1968298 C19.26941579 153.19633985 19.26941579 153.19633985 18.2413251 153.19584001 C7.36435778 153.19133321 -3.5124321 153.21210348 -14.38935454 153.24134367 C-25.56199641 153.27070679 -36.73440765 153.2690106 -47.90706766 153.2411328 C-54.17802601 153.22658024 -60.4482497 153.22641869 -66.71914768 153.26053333 C-72.62100283 153.29236264 -78.52165319 153.28689391 -84.42348576 153.25303173 C-86.58699267 153.24721872 -88.7505866 153.25502871 -90.91398335 153.27762318 C-109.28945923 153.45690214 -109.28945923 153.45690214 -115.23222065 148.51496029 C-117.99964521 145.54302427 -118.94802271 143.22665028 -119.37080097 139.19756222 C-118.94333032 134.50987553 -117.13966344 131.79281901 -113.94111347 128.43974972 C-112.43330097 127.26006222 -112.43330097 127.26006222 -110.43330097 127.26006222 C-110.43330097 126.60006222 -110.43330097 125.94006222 -110.43330097 125.26006222 C-106.91576493 124.0875502 -104.14525823 124.12940565 -100.43127155 124.12203121 C-99.71423646 124.11920993 -98.99720136 124.11638865 -98.25843793 124.11348188 C-95.84951096 124.10513161 -93.44062992 124.10379726 -91.03168964 124.10234737 C-89.30701283 124.09767947 -87.58233724 124.09253594 -85.85766315 124.08695126 C-82.14011659 124.07566664 -78.42257807 124.06723421 -74.70501995 124.06083202 C-68.8264374 124.05015782 -62.94791251 124.02991457 -57.06936359 124.00771236 C-40.35175434 123.94576842 -23.63414839 123.89176985 -6.91645527 123.85869503 C2.3138786 123.84035316 11.544116 123.81142302 20.77437896 123.77069032 C25.65945457 123.74961379 30.54440857 123.73416212 35.42953205 123.73188305 C40.0252245 123.72973649 44.6206637 123.71386634 49.21627903 123.68749332 C50.90209462 123.68029928 52.5879409 123.67819987 54.27376842 123.6815958 C56.57738456 123.68549464 58.88019349 123.67102346 61.18371868 123.65206051 C62.47217599 123.64875036 63.7606333 123.64544022 65.08813477 123.64202976 C68.89459439 123.22405731 71.31924151 122.25979366 74.56669903 120.26006222 C76.92007416 116.40908473 77.12069261 112.69201083 76.56669903 108.26006222 C73.82308581 104.59450151 72.33649157 103.3856868 67.7694521 102.64037895 C66.25645438 102.61731437 64.74288678 102.62169061 63.22993755 102.64774227 C62.39347616 102.64220886 61.55701476 102.63667544 60.69520605 102.63097435 C57.89356819 102.61839852 55.09335385 102.64138152 52.29179668 102.66411495 C50.28273477 102.66221112 48.27367391 102.65805589 46.26462078 102.65181637 C41.93854993 102.64302127 37.61288 102.64978982 33.28684139 102.66847706 C26.44580786 102.69754421 19.60512053 102.68978273 12.76405621 102.67658138 C-0.52482863 102.6559065 -13.81354641 102.67152257 -27.10242176 102.69205379 C-44.01040374 102.71718584 -60.91829238 102.73006045 -77.82627738 102.70209748 C-84.62602479 102.69214197 -91.42535808 102.70227776 -98.22506022 102.72800529 C-102.45698796 102.74017966 -106.68878648 102.73597184 -110.92071819 102.72742748 C-112.88188769 102.72689255 -114.84307303 102.73322609 -116.80419445 102.74696827 C-119.484027 102.76483349 -122.1627351 102.75808118 -124.84257221 102.74539852 C-125.61641612 102.75656954 -126.39026004 102.76774055 -127.18755376 102.77925009 C-132.68957092 102.71577067 -135.87238092 101.35519695 -140.43330097 98.26006222 C-143.1888822 95.43658165 -143.903154 93.36961726 -143.99580097 89.44756222 C-143.85841928 84.55966619 -142.4190758 82.06045187 -139.13642597 78.53740597 C-137.24389741 77.11800954 -135.74564841 76.66723644 -133.43330097 76.26006222 C-133.43330097 75.60006222 -133.43330097 74.94006222 -133.43330097 74.26006222 C-131.60171468 74.25786238 -131.60171468 74.25786238 -129.73312664 74.2556181 C-100.74879323 74.21991742 -71.76455103 74.16367817 -42.78031262 74.08214127 C-39.21298233 74.07212379 -35.64565157 74.06227966 -32.0783205 74.05254269 C-31.36812805 74.05060131 -30.6579356 74.04865994 -29.92622216 74.04665974 C-18.42632966 74.01563719 -6.92645711 73.99865839 4.57346936 73.98686799 C16.37314478 73.97445774 28.17271544 73.94695922 39.97232473 73.90544915 C46.60013607 73.88256606 53.22783184 73.86715431 59.85568905 73.86817837 C66.09210147 73.86892224 72.32818264 73.8510809 78.56450939 73.81889439 C80.85503028 73.81036524 83.14558819 73.80866578 85.43611813 73.81425953 C88.5610587 73.82087534 91.68493786 73.80303584 94.80977154 73.77904415 C96.17262451 73.79068478 96.17262451 73.79068478 97.56300986 73.80256057 C103.18031381 73.72609801 106.24589204 72.92280185 110.56669903 69.26006222 C112.44751582 66.10367418 112.93516236 62.79876511 112.07841778 59.22099972 C110.62465856 55.55040918 110.62465856 55.55040918 107.56669903 53.26006222 C105.08218625 53.15464312 102.62509503 53.10957958 100.13997173 53.10857296 C99.3652102 53.10434055 98.59044866 53.10010814 97.79220951 53.09574747 C95.18204399 53.08267513 92.57190906 53.07668608 89.96171856 53.07060909 C88.09601433 53.06267027 86.23031197 53.05428261 84.36461163 53.04547787 C80.3398381 53.027393 76.31506875 53.01238727 72.29027462 52.9997015 C65.92925413 52.97951724 59.56827986 52.95185929 53.20729351 52.92302608 C39.70211698 52.86287319 26.19691272 52.81107118 12.69169903 52.76006222 C-1.87956233 52.70500634 -16.45080968 52.64852293 -31.02202618 52.58251333 C-37.34826827 52.55413908 -43.67450493 52.5305516 -50.00077891 52.51058865 C-53.93426239 52.4972111 -57.86772044 52.47979783 -61.80118275 52.46127796 C-63.62813773 52.45351529 -65.4551008 52.44744861 -67.2820673 52.44318485 C-69.77229042 52.43714547 -72.26241448 52.42510048 -74.75260639 52.41155148 C-75.47887096 52.41125549 -76.20513553 52.4109595 -76.95340812 52.41065454 C-80.25503391 52.38666556 -83.27559953 52.27913958 -86.43330097 51.26006222 C-86.43330097 50.60006222 -86.43330097 49.94006222 -86.43330097 49.26006222 C-87.03142597 48.99193722 -87.62955097 48.72381222 -88.24580097 48.44756222 C-90.50877652 47.21908978 -91.8150523 46.25349145 -93.43330097 44.26006222 C-94.38652729 40.03335329 -94.35195179 35.91601208 -92.22626972 32.08428097 C-89.54905581 28.81062446 -87.68346979 27.00846151 -83.43330097 26.26006222 C-83.43330097 25.60006222 -83.43330097 24.94006222 -83.43330097 24.26006222 C-63.96330097 24.26006222 -44.49330097 24.26006222 -24.43330097 24.26006222 C-24.10330097 21.29006222 -23.77330097 18.32006222 -23.43330097 15.26006222 C-21.81675409 9.80204372 -19.01690327 6.38978439 -14.31220722 3.26787472 C-9.49225533 0.6825367 -5.43313457 -0.03023594 0 0 Z M457.56669903 107.26006222 C457.56669903 112.21006222 457.56669903 117.16006222 457.56669903 122.26006222 C456.90669903 122.26006222 456.24669903 122.26006222 455.56669903 122.26006222 C454.99372658 129.41312115 454.42444746 136.56646718 453.85771465 143.72002316 C453.66455184 146.15270779 453.47054887 148.58532588 453.2756834 151.01787472 C452.99546845 154.51770225 452.71829226 158.01775932 452.44169903 161.51787472 C452.35420391 162.60246975 452.26670879 163.68706478 452.17656231 164.80452633 C452.0564378 166.33543407 452.0564378 166.33543407 451.93388653 167.89726925 C451.86282696 168.7899551 451.79176739 169.68264095 451.7185545 170.60237789 C451.55390267 173.48401643 451.56669903 176.37372355 451.56669903 179.26006222 C500.07669903 179.26006222 548.58669903 179.26006222 598.56669903 179.26006222 C598.23669903 178.60006222 597.90669903 177.94006222 597.56669903 177.26006222 C596.90669903 177.26006222 596.24669903 177.26006222 595.56669903 177.26006222 C595.30477764 176.67523067 595.04285625 176.09039913 594.77299786 175.48784542 C593.50090044 173.1385459 592.1215205 171.53030892 590.26591778 169.61553097 C589.61816387 168.93812862 588.97040997 168.26072628 588.30302715 167.56279659 C587.28885723 166.51575558 587.28885723 166.51575558 586.25419903 165.44756222 C578.79155063 157.7388129 578.79155063 157.7388129 575.82060528 153.45146847 C573.91553681 150.75399717 572.38111908 149.00461114 569.81669903 147.01006222 C565.58803639 143.46369786 562.30042169 139.41614193 558.86748028 135.11162472 C553.86816775 128.91553279 548.79723893 123.21969597 542.56669903 118.26006222 C541.92732403 117.41443722 541.28794903 116.56881222 540.62919903 115.69756222 C538.20235753 112.82947681 536.0294023 111.65987844 532.56669903 110.26006222 C531.57669903 110.26006222 530.58669903 110.26006222 529.56669903 110.26006222 C529.56669903 109.60006222 529.56669903 108.94006222 529.56669903 108.26006222 C526.13631609 107.11660124 523.51038153 107.13994622 519.89213848 107.14653683 C519.21870403 107.1463908 518.54526958 107.14624477 517.85142803 107.14609432 C515.62757924 107.14679047 513.40381442 107.1545689 511.17998028 107.16240597 C509.63727139 107.16427121 508.09456192 107.16569461 506.55185223 107.16669369 C502.49286035 107.17051052 498.4339043 107.18033371 494.37492657 107.19139767 C490.23247544 107.20162969 486.09001852 107.20619515 481.9475584 107.21123409 C473.82058701 107.22195671 465.6936516 107.23954678 457.56669903 107.26006222 Z " fill="#030303" transform="translate(181.43330097198486,42.7399377822876)"/>
<path d="M0 0 C1.31303101 -0.0153479 1.31303101 -0.0153479 2.65258789 -0.03100586 C8.68535145 0.05057194 13.6604829 1.20985206 19.25 3.4375 C20.35988281 3.87191406 21.46976562 4.30632812 22.61328125 4.75390625 C23.58652344 5.16511719 24.55976563 5.57632812 25.5625 6 C26.54863281 6.41378906 27.53476562 6.82757813 28.55078125 7.25390625 C33.50702358 9.42719341 36.46625812 11.46918535 40.25 15.4375 C41.425625 16.55125 41.425625 16.55125 42.625 17.6875 C49.87062953 25.2781595 53.90787282 32.46118779 57.25 42.4375 C57.61738281 43.33984375 57.98476563 44.2421875 58.36328125 45.171875 C61.66351565 57.32604221 60.16719114 71.96929063 55.25 83.4375 C54.79496094 84.50226563 54.33992188 85.56703125 53.87109375 86.6640625 C52.70876935 89.28012026 51.50736142 91.86609284 50.25 94.4375 C49.59 94.4375 48.93 94.4375 48.25 94.4375 C47.981875 95.159375 47.71375 95.88125 47.4375 96.625 C45.1468956 102.05011568 42.52173115 105.27803316 38.0078125 108.9609375 C36.05125778 110.54903052 36.05125778 110.54903052 33.75 113.0625 C30.67141612 115.98715468 26.6822929 119.4375 22.25 119.4375 C22.25 120.0975 22.25 120.7575 22.25 121.4375 C20.25244091 122.23530561 18.25181115 123.02542425 16.25 123.8125 C15.13625 124.25335938 14.0225 124.69421875 12.875 125.1484375 C-3.59603734 131.00559518 -22.75610364 130.66423082 -38.75 123.4375 C-45.15237968 120.05511074 -50.4485631 115.31948255 -55.75 110.4375 C-56.636875 109.695 -57.52375 108.9525 -58.4375 108.1875 C-62.27378953 103.62542597 -65.75 97.50123197 -65.75 91.4375 C-66.41 91.4375 -67.07 91.4375 -67.75 91.4375 C-71.24694607 76.20080642 -70.99936248 63.67855736 -67.75 48.4375 C-67.09 48.4375 -66.43 48.4375 -65.75 48.4375 C-65.6675 47.6125 -65.585 46.7875 -65.5 45.9375 C-63.51955201 36.69540939 -57.72064647 30.46623572 -51.75 23.4375 C-50.91584313 22.33395536 -50.082322 21.22992921 -49.25 20.125 C-37.19616151 7.16712362 -17.266419 0.15533594 0 0 Z M-13.75 35.4375 C-13.75 36.0975 -13.75 36.7575 -13.75 37.4375 C-14.41 37.499375 -15.07 37.56125 -15.75 37.625 C-23.84945936 39.81860358 -27.91167784 44.23845774 -32.15136719 51.42797852 C-36.6624328 59.55133143 -37.37446826 66.34704123 -35.75 75.4375 C-35.42 76.4275 -35.09 77.4175 -34.75 78.4375 C-34.09 78.4375 -33.43 78.4375 -32.75 78.4375 C-32.70875 79.118125 -32.6675 79.79875 -32.625 80.5 C-31.01555619 85.90313278 -27.92399991 89.17303067 -23.0703125 91.99609375 C-14.92143595 95.73187741 -7.12725546 97.17385766 1.5 94.1875 C2.76393789 93.63501581 4.01465982 93.05126902 5.25 92.4375 C5.91386719 92.11265625 6.57773437 91.7878125 7.26171875 91.453125 C11.29603712 89.39462341 11.29603712 89.39462341 13.25 85.4375 C14.58058992 84.7653745 15.9141884 84.09918694 17.25 83.4375 C22.8679043 76.65781946 26.0592855 68.31015549 25.7890625 59.515625 C24.57670299 52.59287649 21.29204438 45.27970204 16.109375 40.4375 C12.9548092 38.38119044 11.05424046 37.4375 7.25 37.4375 C7.25 36.7775 7.25 36.1175 7.25 35.4375 C3.76541293 34.27597098 0.98309492 34.30479676 -2.6875 34.3125 C-4.52634766 34.30863281 -4.52634766 34.30863281 -6.40234375 34.3046875 C-9.07762431 34.41082465 -11.21927428 34.63832346 -13.75 35.4375 Z " fill="#0A0A0A" transform="translate(289.75,316.5625)"/>
<path d="M0 0 C0.8765625 -0.00386719 1.753125 -0.00773437 2.65625 -0.01171875 C7.21806549 -0.00484855 11.51177028 0.19487345 16 1.125 C16 1.785 16 2.445 16 3.125 C17.36125 3.186875 17.36125 3.186875 18.75 3.25 C24.65701542 4.04166186 29.82260559 7.34501975 35 10.125 C35 10.785 35 11.445 35 12.125 C35.721875 12.3725 36.44375 12.62 37.1875 12.875 C47.15931319 17.30691697 51.87868556 27.59149965 56 37.125 C62.442143 53.97553075 59.86096201 73.83794153 53 90.125 C52.34 90.125 51.68 90.125 51 90.125 C50.7525 90.99125 50.505 91.8575 50.25 92.75 C48.92199976 96.33560064 47.31369152 99.08827987 45 102.125 C44.34 102.125 43.68 102.125 43 102.125 C42.62875 102.99125 42.62875 102.99125 42.25 103.875 C40.81700012 106.45439979 39.21575324 108.18621592 37 110.125 C36.34 110.125 35.68 110.125 35 110.125 C34.64615234 111.03378906 34.64615234 111.03378906 34.28515625 111.9609375 C32.68995216 114.64708663 31.21171751 115.36957074 28.4375 116.75 C25.06626821 118.26991131 25.06626821 118.26991131 23 121.125 C21.29760742 121.88696289 21.29760742 121.88696289 19.10546875 122.59765625 C18.31462891 122.85740234 17.52378906 123.11714844 16.70898438 123.38476562 C15.87689453 123.64966797 15.04480469 123.91457031 14.1875 124.1875 C13.36701172 124.45626953 12.54652344 124.72503906 11.70117188 125.00195312 C-3.79653277 130.04216364 -20.70689092 130.08194759 -36 124.125 C-36.74507812 123.86332031 -37.49015625 123.60164063 -38.2578125 123.33203125 C-42.02828495 121.90430005 -44.26960175 120.02604814 -47 117.125 C-48.11360606 116.33779572 -49.23991181 115.56839934 -50.375 114.8125 C-60.57402501 107.61446742 -66.17531246 96.03339496 -69 84.125 C-69.27650391 82.98804688 -69.27650391 82.98804688 -69.55859375 81.828125 C-72.32608285 64.88031563 -68.93424804 47.69329426 -60 33.125 C-58.40017157 31.05512205 -56.7186371 29.10115276 -55 27.125 C-54.34 26.279375 -53.68 25.43375 -53 24.5625 C-49.09414831 19.80224326 -45.16570731 16.40784198 -39.8671875 13.3359375 C-37.97356096 12.22818712 -37.97356096 12.22818712 -36.72265625 10.66796875 C-34.07290108 8.29460528 -30.84775254 7.29407598 -27.5625 6.0625 C-22.64372734 4.23385557 -22.64372734 4.23385557 -17.90234375 2.00390625 C-12.36456294 -0.55461671 -5.96702688 -0.02632512 0 0 Z M-13 35.125 C-13 35.785 -13 36.445 -13 37.125 C-13.845625 37.186875 -14.69125 37.24875 -15.5625 37.3125 C-22.7044786 39.00060403 -27.2489985 43.86662268 -31.48828125 49.6015625 C-35.45388963 56.22115684 -37.15549732 64.47303996 -36 72.125 C-33.50978399 81.81809889 -29.48181113 86.80057255 -21.0625 92.01171875 C-13.84018277 95.91012862 -6.77012989 96.44252046 1.16796875 94.25 C10.66498396 90.5908205 17.66987096 85.42675867 22 76.125 C25.40662343 68.36792673 26.57334442 60.12890269 23.875 51.9375 C21.21707845 45.84434021 17.25380006 39.82934597 11 37.125 C10.01 37.125 9.02 37.125 8 37.125 C8 36.465 8 35.805 8 35.125 C4.30486069 33.9581139 0.79299017 33.99189171 -3.0625 34 C-4.29097656 33.99742187 -5.51945313 33.99484375 -6.78515625 33.9921875 C-10.01785208 33.97717325 -10.01785208 33.97717325 -13 35.125 Z " fill="#090909" transform="translate(703,316.875)"/>
<path d="M0 0 C25.52071354 0.10711435 51.04139683 0.21985307 76.56205559 0.33933926 C88.41098914 0.39468324 100.25992571 0.44816715 112.10888672 0.49731445 C122.43306463 0.54014191 132.75722027 0.58641623 143.0813638 0.63687855 C148.55094844 0.6634911 154.02052864 0.68834445 159.49013901 0.70907402 C164.63315334 0.72862017 169.77612522 0.75275784 174.91910172 0.78049088 C176.81139609 0.78987204 178.70369979 0.79754347 180.5960083 0.80341911 C183.17024347 0.81166222 185.74437511 0.82593376 188.318573 0.84178162 C189.45377327 0.84324878 189.45377327 0.84324878 190.61190689 0.84474558 C195.77175758 0.88587879 195.77175758 0.88587879 198 2 C197.67 2.66 197.34 3.32 197 4 C132.65 3.67 68.3 3.34 2 3 C2 2.34 2 1.68 2 1 C1.34 0.67 0.68 0.34 0 0 Z " fill="#494949" transform="translate(21,242)"/>
<path d="M0 0 C0.66 0 1.32 0 2 0 C1.86142159 3.12536637 1.71290431 6.25018217 1.5625 9.375 C1.52318359 10.26445313 1.48386719 11.15390625 1.44335938 12.0703125 C1.40146484 12.92109375 1.35957031 13.771875 1.31640625 14.6484375 C1.27974854 15.43395996 1.24309082 16.21948242 1.20532227 17.02880859 C1 19 1 19 0 21 C-0.66 27.93 -1.32 34.86 -2 42 C27.04 42 56.08 42 86 42 C86.33 42.66 86.66 43.32 87 44 C57.3 44 27.6 44 -3 44 C-3 14.7961165 -3 14.7961165 0 0 Z " fill="#9A9A9A" transform="translate(622,84)"/>
<path d="M0 0 C8.79701169 -0.02317215 17.59401288 -0.04093997 26.39104843 -0.05181217 C30.47587919 -0.05703032 34.56068907 -0.06410861 38.64550781 -0.07543945 C42.58771215 -0.08630624 46.5298964 -0.09228489 50.47211456 -0.09487724 C51.9759986 -0.09672464 53.47988154 -0.10033213 54.98375702 -0.10573006 C57.09043248 -0.11299078 59.19702497 -0.11398881 61.30371094 -0.11352539 C63.10240631 -0.11685631 63.10240631 -0.11685631 64.93743896 -0.12025452 C67.49366028 -0.01988193 69.57301445 0.24357499 72 1 C72 1.66 72 2.32 72 3 C48.9 3 25.8 3 2 3 C1.67 7.62 1.34 12.24 1 17 C0.34 17 -0.32 17 -1 17 C-0.97679687 17.7528125 -0.95359375 18.505625 -0.9296875 19.28125 C-0.77552726 28.35468146 -1.71236838 37.04406219 -3 46 C-3.33 46 -3.66 46 -4 46 C-4.11454355 37.16196541 -3.81702437 28.43539979 -3.125 19.625 C-3.04636719 18.50222656 -2.96773437 17.37945312 -2.88671875 16.22265625 C-2.80292969 15.13082031 -2.71914063 14.03898438 -2.6328125 12.9140625 C-2.55949707 11.9442041 -2.48618164 10.9743457 -2.41064453 9.97509766 C-1.93487728 6.52818934 -0.98041971 3.3347536 0 0 Z " fill="#7A7A7A" transform="translate(638,148)"/>
<path d="M0 0 C1.27763741 3.89293545 0.34763092 5.98072894 -1.1640625 9.74609375 C-6.65561115 24.55274596 -3.5060366 39.17760419 0 54 C-5.40999119 48.96314327 -5.89738922 41.00104188 -6.29296875 33.890625 C-6.64724862 22.24099037 -5.63058498 10.39371289 0 0 Z " fill="#858585" transform="translate(639,358)"/>
<path d="M0 0 C0.66 0 1.32 0 2 0 C1.86142159 3.12536637 1.71290431 6.25018217 1.5625 9.375 C1.52318359 10.26445313 1.48386719 11.15390625 1.44335938 12.0703125 C1.40146484 12.92109375 1.35957031 13.771875 1.31640625 14.6484375 C1.27974854 15.43395996 1.24309082 16.21948242 1.20532227 17.02880859 C1 19 1 19 0 21 C-0.21691392 22.37206521 -0.38923163 23.75139272 -0.53515625 25.1328125 C-0.62216797 25.93847656 -0.70917969 26.74414062 -0.79882812 27.57421875 C-0.88583984 28.41597656 -0.97285156 29.25773437 -1.0625 30.125 C-1.15337891 30.97449219 -1.24425781 31.82398437 -1.33789062 32.69921875 C-1.5620368 34.7991145 -1.78146448 36.89951293 -2 39 C-2.33 39 -2.66 39 -3 39 C-3.15132193 25.75092422 -2.64321374 13.0364328 0 0 Z " fill="#626262" transform="translate(622,84)"/>
<path d="M0 0 C0.66 0 1.32 0 2 0 C1.86142159 3.12536637 1.71290431 6.25018217 1.5625 9.375 C1.52318359 10.26445312 1.48386719 11.15390625 1.44335938 12.0703125 C1.40146484 12.92109375 1.35957031 13.771875 1.31640625 14.6484375 C1.27974854 15.43395996 1.24309082 16.21948242 1.20532227 17.02880859 C1 19 1 19 0 21 C-0.43818482 24.6233098 -0.81906499 28.24561874 -1.16210938 31.87890625 C-1.7851525 37.7851525 -1.7851525 37.7851525 -4 40 C-3.73936386 35.88786732 -3.47272576 31.7761731 -3.20043945 27.66479492 C-3.1086044 26.26516364 -3.01843047 24.86542236 -2.92993164 23.46557617 C-2.80267777 21.45723996 -2.6690167 19.44931293 -2.53515625 17.44140625 C-2.456604 16.23170166 -2.37805176 15.02199707 -2.29711914 13.77563477 C-2 11 -2 11 -1 10 C-0.76712992 8.31816052 -0.58735834 6.6287584 -0.4375 4.9375 C-0.31181641 3.55884766 -0.31181641 3.55884766 -0.18359375 2.15234375 C-0.12300781 1.44207031 -0.06242188 0.73179687 0 0 Z " fill="#6F6F6F" transform="translate(813,328)"/>
<path d="M0 0 C6.6 0 13.2 0 20 0 C20.33 0.99 20.66 1.98 21 3 C14.07 3 7.14 3 0 3 C0 2.01 0 1.02 0 0 Z " fill="#666666" transform="translate(694,301)"/>
<path d="M0 0 C0.99 0.33 1.98 0.66 3 1 C2.34 1 1.68 1 1 1 C0.87625 1.67289062 0.7525 2.34578125 0.625 3.0390625 C-0.38423972 7.82033569 -1.75845477 12.50295069 -3.0625 17.2109375 C-4.07551857 20.99308531 -4.07551857 20.99308531 -4.5 24.9140625 C-4.665 25.93242187 -4.83 26.95078125 -5 28 C-5.66 28.33 -6.32 28.66 -7 29 C-7.55190674 20.93602932 -6.35120861 15.29098075 -3 8 C-2.40292821 6.46360188 -1.81832638 4.92226178 -1.25 3.375 C-0.8375 2.26125 -0.425 1.1475 0 0 Z " fill="#919191" transform="translate(212,351)"/>
<path d="M0 0 C-1.58561638 3.85593074 -4.06509954 6.33216291 -7 9.25 C-7.886875 10.14203125 -8.77375 11.0340625 -9.6875 11.953125 C-12 14 -12 14 -14 14 C-12.62694425 9.506363 -10.72179536 7.76970817 -7 5 C-5.6696875 3.63875 -5.6696875 3.63875 -4.3125 2.25 C-2 0 -2 0 0 0 Z " fill="#474747" transform="translate(662,332)"/>
<path d="M0 0 C0 3 0 3 -1.875 5.1875 C-4 7 -4 7 -6 7 C-6 10.63 -6 14.26 -6 18 C-6.66 18 -7.32 18 -8 18 C-8.91473744 9.58102767 -8.91473744 9.58102767 -6.734375 5.8125 C-4.66013924 3.39591465 -2.86400723 1.43200362 0 0 Z " fill="#5D5D5D" transform="translate(96,69)"/>
<path d="M0 0 C3.98671063 1.36687222 6.88494633 3.15195093 10 6 C10 6.66 10 7.32 10 8 C10.639375 8.268125 11.27875 8.53625 11.9375 8.8125 C14 10 14 10 15 13 C11.36832782 11.65493623 9.71894179 9.4563386 7.37109375 6.46484375 C5.27858294 4.22925528 2.78921658 3.16757903 0 2 C0 1.34 0 0.68 0 0 Z " fill="#6C6C6C" transform="translate(714,152)"/>
<path d="M0 0 C0.66 0.33 1.32 0.66 2 1 C-3 6 -8 11 -13 16 C-11.37983645 12.29299535 -9.06115893 9.42663642 -6.5 6.3125 C-5.7059375 5.33925781 -4.911875 4.36601562 -4.09375 3.36328125 C-2 1 -2 1 0 0 Z " fill="#7D7D7D" transform="translate(245,333)"/>
<path d="M0 0 C1.06340773 3.19736014 0.96582104 4.8981025 -0.3125 8 C-0.59351563 8.6909375 -0.87453125 9.381875 -1.1640625 10.09375 C-2.04398261 12.1002968 -2.95616506 14.07292011 -4 16 C-5.42690914 13.14618172 -4.53722061 11.59491527 -3.6875 8.5625 C-3.42324219 7.59441406 -3.15898438 6.62632812 -2.88671875 5.62890625 C-2 3 -2 3 0 0 Z " fill="#9B9B9B" transform="translate(639,358)"/>
<path d="M0 0 C0.66 0.33 1.32 0.66 2 1 C1.8864371 2.64666203 1.75882619 4.29236082 1.625 5.9375 C1.52058594 7.31228516 1.52058594 7.31228516 1.4140625 8.71484375 C1.27742187 9.46894531 1.14078125 10.22304688 1 11 C0.01 11.495 0.01 11.495 -1 12 C-1.02687279 10.18757948 -1.04633715 8.37504767 -1.0625 6.5625 C-1.07410156 5.55316406 -1.08570313 4.54382813 -1.09765625 3.50390625 C-1 1 -1 1 0 0 Z " fill="#7E7E7E" transform="translate(206,368)"/>
<path d="M0 0 C5.42000985 2.94229106 9.38411018 6.37404518 12 12 C11.55269531 11.61328125 11.10539062 11.2265625 10.64453125 10.828125 C10.03996094 10.30734375 9.43539063 9.7865625 8.8125 9.25 C8.17828125 8.7034375 7.5440625 8.156875 6.890625 7.59375 C5.31779514 6.26789342 3.69559234 5.00087924 2.0625 3.75 C1.381875 3.1725 0.70125 2.595 0 2 C0 1.34 0 0.68 0 0 Z " fill="#535353" transform="translate(325,329)"/>
</svg>
